<?xml version="1.0" encoding="iso-8859-1"?>
<!-- Generator: Adobe Illustrator 19.0.0, SVG Export Plug-In . SVG Version: 6.00 Build 0)  -->
<svg version="1.1" id="Capa_1" xmlns="http://www.w3.org/2000/svg" xmlns:xlink="http://www.w3.org/1999/xlink" x="0px" y="0px"
	 viewBox="0 0 512 512" style="enable-background:new 0 0 512 512;" xml:space="preserve">
<g>
	<g>
		<path d="M507.607,64.394C507.607,64.394,507.607,64.394,507.607,64.394l-60-60.001C444.794,1.58,440.979,0,437,0
			C433.414,0,93.94,0,75,0c-3.978,0-7.793,1.58-10.606,4.393l-60,60C1.617,67.169,0,71.056,0,75v90c0,8.284,6.716,15,15,15h15v317
			c0,8.284,6.716,15,15,15h422c8.284,0,15-6.716,15-15V180h15c8.284,0,15-6.716,15-15V75C512,71.063,510.393,67.179,507.607,64.394z
			 M430.787,30l30,30H325.27l-15-30H430.787z M235.27,30h41.459l15,30H220.27L235.27,30z M211,90h90v158.787l-34.394-34.394
			C263.678,211.464,259.839,210,256,210s-7.678,1.464-10.606,4.393L211,248.787V90z M81.213,30h120.516l-15,30H51.213L81.213,30z
			 M30,150V90h151v60H30z M452.001,482H452H60V180h121v105c0,6.067,3.655,11.537,9.26,13.858c5.605,2.322,12.057,1.038,16.347-3.251
			L256,246.213l49.394,49.394c4.29,4.291,10.742,5.573,16.347,3.251c5.605-2.322,9.26-7.791,9.26-13.858V180h121V482z M482,150H331
			V90h151V150z"/>
	</g>
</g>
<g>
	<g>
		<path d="M286,362H105c-8.284,0-15,6.716-15,15v60c0,8.284,6.716,15,15,15h181c8.284,0,15-6.716,15-15v-60
			C301,368.716,294.284,362,286,362z M271,422H120v-30h151V422z"/>
	</g>
</g>
<g>
</g>
<g>
</g>
<g>
</g>
<g>
</g>
<g>
</g>
<g>
</g>
<g>
</g>
<g>
</g>
<g>
</g>
<g>
</g>
<g>
</g>
<g>
</g>
<g>
</g>
<g>
</g>
<g>
</g>
</svg>
