<svg width="18" height="17" viewBox="0 0 18 17" fill="none" xmlns="http://www.w3.org/2000/svg">
<path fill-rule="evenodd" clip-rule="evenodd" d="M0.426563 0.42503C0.661284 0.190309 1.04184 0.190309 1.27656 0.42503L16.5765 15.725C16.8113 15.9597 16.8113 16.3403 16.5765 16.575C16.3418 16.8097 15.9613 16.8097 15.7265 16.575L0.426563 1.27503C0.191842 1.04031 0.191842 0.659751 0.426563 0.42503Z" fill="#444444"/>
<path fill-rule="evenodd" clip-rule="evenodd" d="M16.8367 0.425007C17.0714 0.659727 17.0714 1.04028 16.8367 1.27501L1.53673 16.575C1.30201 16.8097 0.921456 16.8097 0.686735 16.575C0.452014 16.3403 0.452014 15.9597 0.686735 15.725L15.9867 0.425007C16.2214 0.190286 16.602 0.190286 16.8367 0.425007Z" fill="#444444"/>
</svg>
