<svg xmlns="http://www.w3.org/2000/svg" width="88" height="88" viewBox="0 0 88 88">
  <g id="Group_567" data-name="Group 567" transform="translate(-16543 7424)">
    <rect id="Rectangle_6101" data-name="Rectangle 6101" width="88" height="88" transform="translate(16543 -7424)" fill="none"/>
    <g id="Group_521" data-name="Group 521" transform="translate(237.658 193.444)">
      <path id="path262" d="M598.808-536.587H543.875a1.37,1.37,0,0,1-1.371-1.371,1.37,1.37,0,0,1,1.371-1.371h54.933a1.37,1.37,0,0,1,1.371,1.371,1.37,1.37,0,0,1-1.371,1.371" transform="translate(15778 -7002.564)"/>
      <path id="path264" d="M583.924-572.639a1.371,1.371,0,0,1-1.288-.9,1.371,1.371,0,0,1,.817-1.757c2.8-1.021,4.609-3.253,4.609-5.687,0-3.457-3.36-6.269-7.492-6.269h-15.02a1.372,1.372,0,0,1-1.372-1.372,1.369,1.369,0,0,1,1.372-1.369h15.02c5.644,0,10.235,4.041,10.235,9.011,0,3.6-2.517,6.841-6.412,8.261a1.354,1.354,0,0,1-.469.084" transform="translate(15778 -7002.564)"/>
      <path id="path266" d="M555.179-572.637a1.361,1.361,0,0,1-.695-.191,5.057,5.057,0,0,1-2.605-4.336c0-2.861,2.6-5.191,5.8-5.191H582.5a1.37,1.37,0,0,1,1.371,1.371,1.37,1.37,0,0,1-1.371,1.371H557.68c-1.688,0-3.061,1.1-3.061,2.449a2.352,2.352,0,0,0,1.259,1.975,1.371,1.371,0,0,1,.483,1.877,1.368,1.368,0,0,1-1.181.675" transform="translate(15778 -7002.564)"/>
      <path id="path268" d="M559.481-579.613a1.361,1.361,0,0,1-.843-.291c-.187-.147-4.605-3.655-4.163-7.812.253-2.389,1.984-4.377,5.143-5.909,5.723-2.776,7.685-4.648,8.032-10.26a1.373,1.373,0,0,1,.64-1.077,1.367,1.367,0,0,1,1.251-.105c.451.185,11.06,4.616,13.08,11.013a7.07,7.07,0,0,1-.893,6.168,1.371,1.371,0,0,1-1.893.417,1.37,1.37,0,0,1-.419-1.893,4.38,4.38,0,0,0,.592-3.865c-1.136-3.6-6.492-6.889-9.823-8.535-.833,5.536-3.723,7.864-9.371,10.6-2.248,1.091-3.463,2.344-3.612,3.727-.239,2.195,2.177,4.621,3.128,5.369a1.374,1.374,0,0,1,.231,1.924,1.37,1.37,0,0,1-1.08.525" transform="translate(15778 -7002.564)"/>
      <path id="path270" d="M549.713-564.557v19.812a5.424,5.424,0,0,0,5.416,5.417h32.424a5.423,5.423,0,0,0,5.416-5.417v-19.812a2.267,2.267,0,0,1-1.789-2.212v-5.869H551.5v5.869a2.266,2.266,0,0,1-1.791,2.212Zm37.84,27.971H555.129a8.168,8.168,0,0,1-8.157-8.159v-20.24a2.267,2.267,0,0,1,1.789-2.213v-6.812a1.371,1.371,0,0,1,1.371-1.371H592.55a1.371,1.371,0,0,1,1.371,1.371v6.812a2.268,2.268,0,0,1,1.791,2.213v20.24a8.168,8.168,0,0,1-8.159,8.159" transform="translate(15778 -7002.564)"/>
      <path id="path272" d="M549.713-545.983h33.625v-11.871H549.713Zm34.293,2.743H548.343a1.37,1.37,0,0,1-1.371-1.372v-14.612a1.37,1.37,0,0,1,1.371-1.371h35.664a2.045,2.045,0,0,1,2.072,2.011v13.333a2.045,2.045,0,0,1-2.072,2.011" transform="translate(15778 -7002.564)"/>
      <path id="path274" d="M560.047-564.507H549.24a1.37,1.37,0,0,1-1.371-1.371,1.37,1.37,0,0,1,1.371-1.371h10.807a1.37,1.37,0,0,1,1.371,1.371,1.37,1.37,0,0,1-1.371,1.371" transform="translate(15778 -7002.564)"/>
      <path id="path276" d="M593.443-564.507H568.7a1.37,1.37,0,0,1-1.369-1.371,1.37,1.37,0,0,1,1.369-1.371h24.739a1.37,1.37,0,0,1,1.371,1.371,1.37,1.37,0,0,1-1.371,1.371" transform="translate(15778 -7002.564)"/>
    </g>
  </g>
</svg>
