<svg xmlns="http://www.w3.org/2000/svg" width="88" height="88" viewBox="0 0 88 88">
  <g id="Group_593" data-name="Group 593" transform="translate(-15815 7128)">
    <rect id="Rectangle_6101" data-name="Rectangle 6101" width="88" height="88" transform="translate(15815 -7128)" fill="none"/>
    <g id="Group_509" data-name="Group 509" transform="translate(-63.376 168.992)">
      <path id="path604" d="M136.178-226.4v8.476a1.54,1.54,0,0,0,1.539,1.539h13.319a1.539,1.539,0,0,0,1.537-1.539V-226.4Zm14.857,12.756H137.717a4.285,4.285,0,0,1-4.28-4.28v-9.845a1.37,1.37,0,0,1,1.371-1.371h19.136a1.37,1.37,0,0,1,1.371,1.371v9.845a4.285,4.285,0,0,1-4.279,4.28" transform="translate(15778 -7002.564)"/>
      <path id="path606" d="M144.376-259.145a2.9,2.9,0,0,0-2.891,2.891,2.9,2.9,0,0,0,2.891,2.891,2.9,2.9,0,0,0,2.891-2.891A2.9,2.9,0,0,0,144.376-259.145Zm0,8.523a5.639,5.639,0,0,1-5.632-5.632,5.64,5.64,0,0,1,5.632-5.633,5.64,5.64,0,0,1,5.632,5.633,5.639,5.639,0,0,1-5.632,5.632" transform="translate(15778 -7002.564)"/>
      <path id="path608" d="M157.488-233H131.264a1.371,1.371,0,0,1-1.371-1.369,1.371,1.371,0,0,1,1.371-1.371h26.223a1.37,1.37,0,0,1,1.371,1.371A1.37,1.37,0,0,1,157.488-233" transform="translate(15778 -7002.564)"/>
      <path id="path610" d="M172.574-213.641h-56.4a1.371,1.371,0,0,1-1.371-1.371,1.371,1.371,0,0,1,1.371-1.371h56.4a1.371,1.371,0,0,1,1.372,1.371,1.371,1.371,0,0,1-1.372,1.371" transform="translate(15778 -7002.564)"/>
      <path id="path612" d="M127.381-284.473a2.484,2.484,0,0,0-2.481,2.48,2.485,2.485,0,0,0,2.481,2.483H161.37a2.485,2.485,0,0,0,2.481-2.483,2.484,2.484,0,0,0-2.481-2.48Zm33.989,7.7H127.381a5.23,5.23,0,0,1-5.223-5.224,5.23,5.23,0,0,1,5.223-5.223H161.37a5.229,5.229,0,0,1,5.223,5.223,5.229,5.229,0,0,1-5.223,5.224" transform="translate(15778 -7002.564)"/>
      <path id="path614" d="M127.381-284.473a2.484,2.484,0,0,0-2.481,2.48,2.485,2.485,0,0,0,2.481,2.483H161.37a2.485,2.485,0,0,0,2.481-2.483,2.484,2.484,0,0,0-2.481-2.48Zm33.989,7.7H127.381a5.23,5.23,0,0,1-5.223-5.224,5.23,5.23,0,0,1,5.223-5.223H161.37a5.229,5.229,0,0,1,5.223,5.223,5.229,5.229,0,0,1-5.223,5.224" transform="translate(15778 -7002.564)"/>
      <path id="path616" d="M128.538-276.769l4.56,47.119a.566.566,0,0,0,.566.513h21.424a.565.565,0,0,0,.565-.513l4.56-47.119Zm26.55,50.372H133.664a3.3,3.3,0,0,1-3.295-2.989l-4.709-48.659a1.368,1.368,0,0,1,.394-1.1,1.355,1.355,0,0,1,1.1-.4l.184.023,34.015.008.247-.031a1.366,1.366,0,0,1,1.1.4,1.373,1.373,0,0,1,.393,1.1l-4.709,48.659a3.3,3.3,0,0,1-3.295,2.989" transform="translate(15778 -7002.564)"/>
      <path id="path618" d="M144.376-263.406A1.371,1.371,0,0,1,143-264.778v-2.083a1.369,1.369,0,0,1,1.371-1.371,1.369,1.369,0,0,1,1.371,1.371v2.083a1.371,1.371,0,0,1-1.371,1.372" transform="translate(15778 -7002.564)"/>
      <path id="path620" d="M148.636-262.265a1.355,1.355,0,0,1-.684-.184,1.37,1.37,0,0,1-.5-1.872l1.043-1.8a1.368,1.368,0,0,1,1.872-.5,1.369,1.369,0,0,1,.5,1.872l-1.043,1.8a1.369,1.369,0,0,1-1.188.685" transform="translate(15778 -7002.564)"/>
      <path id="path622" d="M151.758-259.145a1.37,1.37,0,0,1-1.188-.687,1.369,1.369,0,0,1,.5-1.871l1.805-1.043a1.369,1.369,0,0,1,1.872.5,1.371,1.371,0,0,1-.5,1.872l-1.805,1.043a1.359,1.359,0,0,1-.684.184" transform="translate(15778 -7002.564)"/>
      <path id="path624" d="M154.982-254.885H152.9a1.37,1.37,0,0,1-1.371-1.369,1.37,1.37,0,0,1,1.371-1.371h2.084a1.37,1.37,0,0,1,1.371,1.371,1.37,1.37,0,0,1-1.371,1.369" transform="translate(15778 -7002.564)"/>
      <path id="path626" d="M153.56-249.579a1.36,1.36,0,0,1-.684-.185l-1.805-1.041a1.371,1.371,0,0,1-.5-1.872,1.366,1.366,0,0,1,1.872-.5l1.805,1.041a1.371,1.371,0,0,1,.5,1.872,1.368,1.368,0,0,1-1.188.687" transform="translate(15778 -7002.564)"/>
      <path id="path628" d="M149.681-245.7a1.368,1.368,0,0,1-1.188-.687l-1.043-1.8a1.371,1.371,0,0,1,.5-1.873,1.369,1.369,0,0,1,1.872.5l1.043,1.805a1.37,1.37,0,0,1-.5,1.872,1.359,1.359,0,0,1-.684.184" transform="translate(15778 -7002.564)"/>
      <path id="path630" d="M144.376-244.277A1.371,1.371,0,0,1,143-245.647v-2.084a1.371,1.371,0,0,1,1.371-1.372,1.371,1.371,0,0,1,1.371,1.372v2.084a1.371,1.371,0,0,1-1.371,1.371" transform="translate(15778 -7002.564)"/>
      <path id="path632" d="M139.072-245.7a1.359,1.359,0,0,1-.684-.184,1.37,1.37,0,0,1-.5-1.872l1.041-1.805a1.37,1.37,0,0,1,1.872-.5,1.371,1.371,0,0,1,.5,1.873l-1.041,1.8a1.37,1.37,0,0,1-1.188.687" transform="translate(15778 -7002.564)"/>
      <path id="path634" d="M135.192-249.579a1.37,1.37,0,0,1-1.188-.687,1.37,1.37,0,0,1,.5-1.872l1.805-1.041a1.366,1.366,0,0,1,1.872.5,1.369,1.369,0,0,1-.5,1.872l-1.8,1.041a1.357,1.357,0,0,1-.684.185" transform="translate(15778 -7002.564)"/>
      <path id="path636" d="M135.853-254.885h-2.084a1.37,1.37,0,0,1-1.371-1.369,1.37,1.37,0,0,1,1.371-1.371h2.084a1.37,1.37,0,0,1,1.371,1.371,1.37,1.37,0,0,1-1.371,1.369" transform="translate(15778 -7002.564)"/>
      <path id="path638" d="M136.994-259.145a1.356,1.356,0,0,1-.684-.184l-1.805-1.043a1.37,1.37,0,0,1-.5-1.872,1.37,1.37,0,0,1,1.872-.5l1.8,1.043a1.367,1.367,0,0,1,.5,1.871,1.372,1.372,0,0,1-1.188.687" transform="translate(15778 -7002.564)"/>
      <path id="path640" d="M140.116-262.265a1.371,1.371,0,0,1-1.189-.687l-1.041-1.8a1.373,1.373,0,0,1,.5-1.873,1.371,1.371,0,0,1,1.872.5l1.043,1.8a1.371,1.371,0,0,1-.5,1.872,1.359,1.359,0,0,1-.684.184" transform="translate(15778 -7002.564)"/>
    </g>
  </g>
</svg>
