<svg xmlns="http://www.w3.org/2000/svg" width="38" height="39">
    <path fill="#666" fill-rule="evenodd" d="M36.315 8.228L27.83 20.865l-9.214 4.537.918-10.517 8.477-12.633c.775-1.153 1.938-1.924 3.277-2.167 1.329-.238 2.671.067 3.777.869 2.272 1.651 2.834 4.913 1.25 7.274zm-2.398-5.639c-.669-.486-1.48-.668-2.281-.527-.813.147-1.521.618-1.993 1.322l-8.188 12.2-.564 6.468 5.605-2.76 8.188-12.198c.983-1.462.638-3.485-.767-4.505zM21.424 6.667H2.848V36.83h28.795V18.975c0-.555.442-1.005.987-1.005.546 0 .988.45.988 1.005v18.86c0 .555-.442 1.004-.988 1.004H1.861c-.546 0-.988-.449-.988-1.004V5.663c0-.555.442-1.004.988-1.004h19.563c.546 0 .987.449.987 1.004 0 .555-.441 1.004-.987 1.004z"/>
</svg>
