<svg xmlns="http://www.w3.org/2000/svg" width="88" height="88" viewBox="0 0 88 88">
  <g id="Group_586" data-name="Group 586" transform="translate(-16002 7300)">
    <rect id="Rectangle_6101" data-name="Rectangle 6101" width="88" height="88" transform="translate(16002 -7300)" fill="none"/>
    <g id="Group_516" data-name="Group 516" transform="translate(16.862 202.678)">
      <path id="path390" d="M272.6-450.26h-9.547a4.333,4.333,0,0,1-4.328-4.328,4.334,4.334,0,0,1,4.328-4.329h14.385a1.371,1.371,0,0,1,1.371,1.372,1.37,1.37,0,0,1-1.371,1.371H263.051a1.589,1.589,0,0,0-1.587,1.587A1.589,1.589,0,0,0,263.051-453H272.6a1.37,1.37,0,0,1,1.371,1.371,1.37,1.37,0,0,1-1.371,1.371" transform="translate(15778 -7002.564)"/>
      <path id="path392" d="M281.9-442.147H261.491a5.434,5.434,0,0,1-5.427-5.428A5.433,5.433,0,0,1,261.491-453h9.757a1.37,1.37,0,0,1,1.371,1.371,1.37,1.37,0,0,1-1.371,1.371h-9.757a2.688,2.688,0,0,0-2.685,2.685,2.688,2.688,0,0,0,2.685,2.685H281.9a5.648,5.648,0,0,0,5.643-5.643c0-1.4-.444-2.051-1.775-3.305a1.371,1.371,0,0,1-.329-1.515,4.852,4.852,0,0,0-1.189-4.68,11.633,11.633,0,0,0-3.779-2.312,1.341,1.341,0,0,1-.2-.092,12.046,12.046,0,0,1-4.767-5.209,27.4,27.4,0,0,1-9,5.971c-.784.3-1.761.816-1.971,1.56a1.8,1.8,0,0,0,.164,1.2h12.741a1.371,1.371,0,0,1,1.371,1.372,1.37,1.37,0,0,1-1.371,1.371H263.918a1.375,1.375,0,0,1-1.072-.516,5,5,0,0,1-.964-4.131c.405-1.492,1.628-2.64,3.635-3.412a25.586,25.586,0,0,0,9.4-6.8,1.366,1.366,0,0,1,1.361-.471,1.372,1.372,0,0,1,1.031,1.005,10.132,10.132,0,0,0,4.219,5.625,14.343,14.343,0,0,1,4.708,2.957,7.859,7.859,0,0,1,2.019,6.681,6.178,6.178,0,0,1,2.023,4.7,8.4,8.4,0,0,1-8.384,8.385" transform="translate(15778 -7002.564)"/>
      <path id="path394" d="M253.615-468.907a25.665,25.665,0,0,1-5.143-.511,1.369,1.369,0,0,1-1.039-1.635,1.373,1.373,0,0,1,1.635-1.04c.08.017,8.208,1.76,12.433-1.809a1.372,1.372,0,0,1,1.932.161,1.37,1.37,0,0,1-.163,1.932c-2.76,2.333-6.585,2.9-9.656,2.9" transform="translate(15778 -7002.564)"/>
      <path id="path396" d="M243.37-454.786h-.763a1.373,1.373,0,0,1-1.372-1.372,1.371,1.371,0,0,1,1.372-1.371h.763a3.059,3.059,0,0,0,1.928-.685l1.9-1.545a1.367,1.367,0,0,1,1.928.2,1.37,1.37,0,0,1-.2,1.928l-1.9,1.545a5.811,5.811,0,0,1-3.66,1.3" transform="translate(15778 -7002.564)"/>
      <path id="path398" d="M231.6-468.907c-3.071,0-6.895-.568-9.656-2.9a1.371,1.371,0,0,1-.161-1.932,1.369,1.369,0,0,1,1.931-.161c4.225,3.569,12.353,1.827,12.435,1.809a1.371,1.371,0,0,1,1.635,1.04,1.37,1.37,0,0,1-1.04,1.635,25.666,25.666,0,0,1-5.143.511" transform="translate(15778 -7002.564)"/>
      <path id="path400" d="M242.607-454.786h-.764a5.8,5.8,0,0,1-3.659-1.3l-1.9-1.545a1.371,1.371,0,0,1-.2-1.928,1.369,1.369,0,0,1,1.928-.2l1.9,1.545a3.055,3.055,0,0,0,1.927.685h.764a1.37,1.37,0,0,1,1.371,1.371,1.371,1.371,0,0,1-1.371,1.372" transform="translate(15778 -7002.564)"/>
      <path id="path402" d="M242.609-442.934l.088,0a9.769,9.769,0,0,0,5.861-2.117,13.726,13.726,0,0,0-2.213-.837,13.553,13.553,0,0,0-7.475,0,13.622,13.622,0,0,0-2.215.837,9.72,9.72,0,0,0,5.871,2.116h.083Zm.179,2.745c-.075,0-.136,0-.18,0a13.1,13.1,0,0,1-9.224-4.069,1.375,1.375,0,0,1-.407-1.016,1.37,1.37,0,0,1,.467-.988,12.619,12.619,0,0,1,4.671-2.256,16.288,16.288,0,0,1,8.987,0,12.62,12.62,0,0,1,4.669,2.256,1.363,1.363,0,0,1,.467.988,1.369,1.369,0,0,1-.405,1.016,13.23,13.23,0,0,1-9.044,4.072" transform="translate(15778 -7002.564)"/>
      <path id="path404" d="M237.373-476.547a1.368,1.368,0,0,1-.488-.091l-8.461-3.227a7.844,7.844,0,0,0-3.316-.492l-3.959.28a1.355,1.355,0,0,1-1.463-1.271,1.371,1.371,0,0,1,1.271-1.464l3.959-.279a10.539,10.539,0,0,1,4.484.664l8.463,3.227a1.371,1.371,0,0,1,.792,1.769,1.37,1.37,0,0,1-1.281.883" transform="translate(15778 -7002.564)"/>
      <path id="path406" d="M242.607-429.111a16.509,16.509,0,0,1-10.133-3.469c-25.288-19.605-20.049-44.325-19.993-44.573a1.37,1.37,0,0,1,1.639-1.035,1.37,1.37,0,0,1,1.035,1.639c-.208.941-4.861,23.3,19,41.8a13.8,13.8,0,0,0,16.908,0,59.946,59.946,0,0,0,6.611-5.936,1.371,1.371,0,0,1,1.937-.045,1.371,1.371,0,0,1,.044,1.939,62.491,62.491,0,0,1-6.912,6.209,16.509,16.509,0,0,1-10.133,3.469" transform="translate(15778 -7002.564)"/>
      <path id="path408" d="M271.869-470.944a1.371,1.371,0,0,1-1.369-1.327,25.755,25.755,0,0,0-.441-4.281,1.373,1.373,0,0,1,1.039-1.636,1.366,1.366,0,0,1,1.636,1.035,27.717,27.717,0,0,1,.507,4.793,1.371,1.371,0,0,1-1.325,1.415h-.045" transform="translate(15778 -7002.564)"/>
      <path id="path410" d="M247.842-476.547a1.37,1.37,0,0,1-1.281-.883,1.37,1.37,0,0,1,.792-1.769l8.461-3.227a10.57,10.57,0,0,1,4.484-.664l3.959.279a1.37,1.37,0,0,1,1.271,1.464,1.363,1.363,0,0,1-1.463,1.271l-3.959-.28a7.841,7.841,0,0,0-3.315.492l-8.461,3.227a1.373,1.373,0,0,1-.488.091" transform="translate(15778 -7002.564)"/>
      <path id="path412" d="M286.7-453.464h-5.665a1.37,1.37,0,0,1-1.371-1.371,1.371,1.371,0,0,1,1.371-1.371H286.7a1.371,1.371,0,0,1,1.371,1.371,1.37,1.37,0,0,1-1.371,1.371" transform="translate(15778 -7002.564)"/>
    </g>
  </g>
</svg>
