<svg xmlns="http://www.w3.org/2000/svg" width="33" height="36">
    <path fill="#FFF" fill-rule="evenodd" d="M25.115 36c-3.101 0-10.162-3.715-16.152-11.971C3.486 16.482.823 10.967.823 7.166c0-3.348 2.262-4.939 3.349-5.705l.24-.174C5.687.352 7.638 0 8.566 0c1.315 0 2.289.639 2.895 1.896.236.483 2.39 5.211 2.626 5.852.456 1.227.292 3.029-1.147 4.084l-.196.137c-.298.215-1.096.785-1.161 1.183-.023.149.106.369.219.528 1.731 2.388 6.863 8.875 7.702 9.679.262.248.668.459.937.223.517-.445.788-.736.859-.813l.402-.33a3.32 3.32 0 0 1 1.85-.55c.823 0 1.637.275 2.421.816l5.257 3.625c.983.854 1.564 2.521.648 4.32-.767 1.49-3.471 5.35-6.763 5.35zM8.566 2c-.602 0-2.086.264-2.949.898l-.258.186c-.943.662-2.507 1.764-2.507 4.082 0 3.32 2.612 8.603 7.761 15.699C16.321 30.734 22.875 34 25.115 34c1.954 0 4.189-2.77 4.952-4.25.553-1.088-.006-1.748-.148-1.891l-5.111-3.517c-.909-.629-1.896-.313-2.028-.205-.119.128-.437.462-1.001.949-1.039.9-2.555.783-3.686-.289-1.064-1.022-6.418-7.852-7.946-9.959-.48-.672-.67-1.342-.568-1.996.198-1.221 1.354-2.049 1.975-2.492l.193-.135c.627-.461.606-1.319.435-1.782-.201-.541-2.307-5.173-2.551-5.671C9.357 2.191 9.088 2 8.566 2z"/>
</svg>
