<svg id="SvgjsSvg1001" width="288" height="288" xmlns="http://www.w3.org/2000/svg" version="1.1" xmlns:xlink="http://www.w3.org/1999/xlink" xmlns:svgjs="http://svgjs.com/svgjs"><defs id="SvgjsDefs1002"></defs><g id="SvgjsG1008"><svg xmlns="http://www.w3.org/2000/svg" width="288" height="288" fill="none" viewBox="0 0 19 18"><path fill="#ffc107" d="M10.1926 0.484151L12.4311 5.02016C12.5576 5.27637 12.802 5.45336 13.0835 5.49381L18.0898 6.222C18.7994 6.32483 19.0843 7.19798 18.5702 7.69861L14.9478 11.2317C14.7438 11.4306 14.6511 11.7171 14.6983 11.9986L15.5529 16.9847C15.6743 17.6927 14.9309 18.232 14.2954 17.8983L9.82011 15.5435C9.56727 15.4103 9.26554 15.4103 9.01438 15.5435L4.53569 17.8983C3.90021 18.232 3.15685 17.6927 3.27822 16.9847L4.13283 11.9986C4.18171 11.7171 4.08731 11.4306 3.88335 11.2317L0.262642 7.70029C-0.251472 7.19966 0.0317118 6.32651 0.743044 6.22369L5.74934 5.4955C6.03084 5.45505 6.27525 5.27806 6.40167 5.02184L8.64018 0.484151C8.95707 -0.159756 9.87574 -0.159756 10.1926 0.484151Z" class="colorAD2526 svgShape"></path></svg></g></svg>