<svg id="SvgjsSvg1001" width="288" height="288" xmlns="http://www.w3.org/2000/svg" version="1.1" xmlns:xlink="http://www.w3.org/1999/xlink" xmlns:svgjs="http://svgjs.com/svgjs"><defs id="SvgjsDefs1002"></defs><g id="SvgjsG1008"><svg xmlns="http://www.w3.org/2000/svg" width="288" height="288" fill="none" viewBox="0 0 20 18"><path fill="#ffc107" d="M15.565 11.2313C15.3611 11.4302 15.2684 11.7167 15.3172 11.9982L16.1718 16.9843C16.2932 17.6923 15.5499 18.2317 14.9144 17.8962L10.4374 15.5431C10.3109 15.4774 10.1744 15.4437 10.0345 15.4437C9.89628 15.4437 9.75638 15.4757 9.62996 15.5431L5.15295 17.8962C4.51747 18.2317 3.77411 17.6923 3.89547 16.9843L4.75177 11.9982C4.79897 11.7167 4.70626 11.4302 4.5023 11.2313L0.879902 7.69991C0.365788 7.1976 0.648972 6.32613 1.35862 6.22162L6.36659 5.49512C6.64809 5.45298 6.89251 5.27599 7.01893 5.02146L9.25743 0.483773C9.41588 0.16182 9.72604 0 10.0345 0C10.3447 0 10.6514 0.16182 10.8099 0.483773L13.0501 5.02146C13.1765 5.27599 13.4192 5.45298 13.7024 5.49512L18.7087 6.22162C19.4184 6.32613 19.7032 7.1976 19.1891 7.69991L15.565 11.2313Z" class="colorAD2526 svgShape"></path><path fill="#b2b2b2" d="M15.5618 11.2313C15.3578 11.4302 15.2651 11.7167 15.314 11.9982L16.1686 16.9843C16.29 17.6923 15.5466 18.2317 14.9111 17.8962L10.4341 15.5431C10.3077 15.4774 10.1712 15.4437 10.0312 15.4437V0C10.3414 0 10.6482 0.16182 10.8066 0.483773L13.0468 5.02146C13.1732 5.27599 13.416 5.45298 13.6992 5.49512L18.7055 6.22162C19.4151 6.32613 19.7 7.1976 19.1858 7.69991L15.5618 11.2313Z" class="colorB2B2B2 svgShape"></path></svg></g></svg>