<svg xmlns="http://www.w3.org/2000/svg" width="88" height="88" viewBox="0 0 88 88">
  <g id="Group_589" data-name="Group 589" transform="translate(-16002 6976)">
    <rect id="Rectangle_6101" data-name="Rectangle 6101" width="88" height="88" transform="translate(16002 -6976)" fill="none"/>
    <g id="Group_507" data-name="Group 507" transform="translate(19 214.846)">
      <path id="path582" d="M242.921-120.157v8.475a1.54,1.54,0,0,0,1.537,1.539h13.319a1.54,1.54,0,0,0,1.537-1.539v-8.475ZM257.777-107.4H244.458a4.285,4.285,0,0,1-4.28-4.28v-9.845a1.369,1.369,0,0,1,1.371-1.369h19.136a1.369,1.369,0,0,1,1.371,1.369v9.845a4.285,4.285,0,0,1-4.279,4.28" transform="translate(15778 -7002.564)"/>
      <path id="path584" d="M234.517-178.418l5.323,55.007a.568.568,0,0,0,.565.515h21.424a.568.568,0,0,0,.567-.515l5.323-55.007Zm27.312,58.261H240.4a3.3,3.3,0,0,1-3.295-2.991l-5.468-56.511a1.366,1.366,0,0,1,.349-1.052,1.371,1.371,0,0,1,1.016-.451h36.221a1.37,1.37,0,0,1,1.015.451,1.366,1.366,0,0,1,.349,1.052l-5.469,56.511a3.3,3.3,0,0,1-3.295,2.991" transform="translate(15778 -7002.564)"/>
      <path id="path586" d="M260.029-172.973H233.534a1.371,1.371,0,0,1-1.371-1.371,1.371,1.371,0,0,1,1.371-1.372h26.495a1.371,1.371,0,0,1,1.371,1.372,1.371,1.371,0,0,1-1.371,1.371" transform="translate(15778 -7002.564)"/>
      <path id="path588" d="M251.118-161.572a8.455,8.455,0,0,0-8.447,8.447,8.456,8.456,0,0,0,8.447,8.447,8.456,8.456,0,0,0,8.447-8.447A8.456,8.456,0,0,0,251.118-161.572Zm0,19.633a11.2,11.2,0,0,1-11.189-11.187,11.2,11.2,0,0,1,11.189-11.188,11.2,11.2,0,0,1,11.188,11.188,11.2,11.2,0,0,1-11.188,11.187" transform="translate(15778 -7002.564)"/>
      <path id="path590" d="M264.229-126.76H238.006a1.37,1.37,0,0,1-1.371-1.371,1.37,1.37,0,0,1,1.371-1.371h26.223a1.37,1.37,0,0,1,1.371,1.371,1.37,1.37,0,0,1-1.371,1.371" transform="translate(15778 -7002.564)"/>
      <path id="path592" d="M279.315-107.4h-56.4a1.37,1.37,0,0,1-1.371-1.371,1.37,1.37,0,0,1,1.371-1.371h56.4a1.371,1.371,0,0,1,1.372,1.371,1.371,1.371,0,0,1-1.372,1.371" transform="translate(15778 -7002.564)"/>
    </g>
  </g>
</svg>
