<svg width="20" height="18" viewBox="0 0 20 18" fill="none" xmlns="http://www.w3.org/2000/svg">
<path d="M10.6821 0.483754L12.9206 5.01976C13.047 5.27597 13.2914 5.45296 13.5729 5.49342L18.5792 6.22161C19.2888 6.32443 19.5737 7.19758 19.0596 7.69821L15.4372 11.2296C15.2332 11.4285 15.1405 11.715 15.1877 11.9965L16.0423 16.9826C16.1637 17.6906 15.4203 18.23 14.7849 17.8962L10.3062 15.5414C10.0533 15.4082 9.7516 15.4082 9.50044 15.5414L5.02175 17.8962C4.38627 18.23 3.64291 17.6906 3.76427 16.9826L4.61888 11.9965C4.66777 11.715 4.57337 11.4285 4.36941 11.2296L0.747018 7.69821C0.232904 7.19758 0.516084 6.32443 1.22742 6.22161L6.23371 5.49342C6.51521 5.45296 6.75962 5.27597 6.88604 5.01976L9.12455 0.483754C9.44651 -0.160153 10.3635 -0.160153 10.6821 0.483754Z" fill="#B2B2B2"/>
</svg>
