<svg xmlns="http://www.w3.org/2000/svg" width="88" height="88" viewBox="0 0 88 88">
  <g id="Group_601" data-name="Group 601" transform="translate(-15667 6918)">
    <rect id="Rectangle_6101" data-name="Rectangle 6101" width="88" height="88" transform="translate(15667 -6918)" fill="none"/>
    <g id="Group_497" data-name="Group 497" transform="translate(-104.007 273.494)">
      <path id="path740" d="M20.447-113.676a1.768,1.768,0,0,0-1.766,1.767,1.769,1.769,0,0,0,1.766,1.765H46a1.768,1.768,0,0,0,1.766-1.765A1.768,1.768,0,0,0,46-113.676ZM46-107.4H20.447a4.513,4.513,0,0,1-4.508-4.507,4.512,4.512,0,0,1,4.508-4.508H46a4.512,4.512,0,0,1,4.507,4.508A4.513,4.513,0,0,1,46-107.4" transform="translate(15778 -7002.564)"/>
      <path id="path742" d="M21.932-116.417h22.58V-154.6a11.182,11.182,0,0,0-3.535-8.189,1.371,1.371,0,0,1-.428-1v-4.812H25.9v4.812a1.37,1.37,0,0,1-.428,1,11.182,11.182,0,0,0-3.536,8.189Zm23.95,2.741H20.561a1.371,1.371,0,0,1-1.371-1.371V-154.6a13.882,13.882,0,0,1,3.963-9.757v-4.7a2.286,2.286,0,0,1,2.283-2.283H41.006a2.286,2.286,0,0,1,2.283,2.283v4.7a13.882,13.882,0,0,1,3.963,9.757v39.55a1.37,1.37,0,0,1-1.37,1.371" transform="translate(15778 -7002.564)"/>
      <path id="path744" d="M30-171.336h6.511v-5.129a3.254,3.254,0,0,0-3.249-3.251,3.257,3.257,0,0,0-3.249,3.237Zm7.882,2.741H28.624a1.367,1.367,0,0,1-.971-.4,1.373,1.373,0,0,1-.4-.972l.017-6.52a6,6,0,0,1,5.991-5.968,6,6,0,0,1,5.991,5.992v6.5a1.371,1.371,0,0,1-1.371,1.371" transform="translate(15778 -7002.564)"/>
      <path id="path746" d="M31.7-162.41H24.525a1.372,1.372,0,0,1-1.371-1.372,1.372,1.372,0,0,1,1.371-1.371H31.7a1.372,1.372,0,0,1,1.371,1.371A1.372,1.372,0,0,1,31.7-162.41" transform="translate(15778 -7002.564)"/>
      <path id="path748" d="M41.919-162.41H37.634a1.371,1.371,0,0,1-1.37-1.372,1.371,1.371,0,0,1,1.37-1.371h4.284a1.371,1.371,0,0,1,1.371,1.371,1.372,1.372,0,0,1-1.371,1.372" transform="translate(15778 -7002.564)"/>
      <path id="path750" d="M54.515-173.242H45.882a1.37,1.37,0,0,1-1.371-1.371,1.371,1.371,0,0,1,1.371-1.371h8.633a1.371,1.371,0,0,1,1.37,1.371,1.37,1.37,0,0,1-1.37,1.371" transform="translate(15778 -7002.564)"/>
      <path id="path752" d="M48.619-177.777a1.372,1.372,0,0,1-1.309-.964,1.371,1.371,0,0,1,.9-1.715l5.895-1.827a1.373,1.373,0,0,1,1.715.905,1.37,1.37,0,0,1-.9,1.713l-5.9,1.825a1.341,1.341,0,0,1-.406.061" transform="translate(15778 -7002.564)"/>
      <path id="path754" d="M54.515-166.884a1.3,1.3,0,0,1-.406-.063l-5.895-1.824a1.372,1.372,0,0,1-.9-1.715,1.371,1.371,0,0,1,1.715-.9l5.9,1.825a1.371,1.371,0,0,1,.9,1.715,1.371,1.371,0,0,1-1.309.965" transform="translate(15778 -7002.564)"/>
      <path id="path756" d="M29.025-127.594H44.511v-17.218H29.025Zm16.857,2.742H27.655a1.37,1.37,0,0,1-1.37-1.372v-19.958a1.371,1.371,0,0,1,1.37-1.372H45.882a1.371,1.371,0,0,1,1.37,1.372v19.958a1.371,1.371,0,0,1-1.37,1.372" transform="translate(15778 -7002.564)"/>
      <path id="path758" d="M61.643-107.4H12.371A1.371,1.371,0,0,1,11-108.773a1.371,1.371,0,0,1,1.371-1.371H61.643a1.371,1.371,0,0,1,1.371,1.371,1.37,1.37,0,0,1-1.371,1.371" transform="translate(15778 -7002.564)"/>
    </g>
  </g>
</svg>
