<svg xmlns="http://www.w3.org/2000/svg" width="40" height="40" viewBox="0 0 40 40">
  <path id="user_8_" data-name="user (8)" d="M40,20A20,20,0,1,0,6.492,34.733l-.019.017.649.547c.042.036.088.065.13.1.345.286.7.557,1.065.82.118.085.236.17.356.253q.583.4,1.194.762c.089.052.178.1.268.154.446.254.9.493,1.367.713l.1.047a19.82,19.82,0,0,0,4.837,1.531l.134.024c.527.091,1.059.164,1.6.212l.2.015C18.908,39.972,19.45,40,20,40s1.082-.028,1.616-.071l.2-.015q.8-.073,1.584-.209l.136-.025a19.819,19.819,0,0,0,4.769-1.495c.055-.025.111-.049.167-.076q.673-.316,1.317-.681.16-.091.319-.184c.391-.231.776-.471,1.15-.727.135-.092.266-.188.4-.284.319-.23.633-.467.937-.715.068-.055.14-.1.207-.158l.665-.556-.02-.017A19.948,19.948,0,0,0,40,20ZM1.455,20A18.545,18.545,0,1,1,32.3,33.864a5.451,5.451,0,0,0-.649-.391l-6.158-3.079a1.612,1.612,0,0,1-.9-1.449V26.795c.143-.176.293-.375.449-.594a14.82,14.82,0,0,0,1.9-3.726,2.639,2.639,0,0,0,1.516-2.392V17.5a2.646,2.646,0,0,0-.645-1.723V12.388a5.866,5.866,0,0,0-1.369-4.265c-1.34-1.53-3.51-2.3-6.449-2.3s-5.108.775-6.449,2.3a5.866,5.866,0,0,0-1.369,4.265v3.394a2.65,2.65,0,0,0-.645,1.723v2.578a2.646,2.646,0,0,0,.975,2.052,13.666,13.666,0,0,0,2.249,4.647v2.1a1.622,1.622,0,0,1-.845,1.424L8.165,33.446a5.256,5.256,0,0,0-.547.346A18.5,18.5,0,0,1,1.455,20ZM30.879,35.005c-.255.185-.513.364-.776.535-.121.079-.241.157-.364.233-.343.212-.692.415-1.049.6-.079.041-.158.081-.237.121a18.532,18.532,0,0,1-2.537,1.073l-.092.031q-.684.227-1.385.4h0c-.471.116-.948.213-1.428.292l-.039.007c-.452.073-.907.127-1.364.167-.081.007-.161.012-.243.018-.452.034-.905.056-1.361.056s-.921-.023-1.378-.057c-.079-.006-.159-.011-.237-.018-.461-.041-.92-.1-1.375-.169l-.061-.011a18.476,18.476,0,0,1-2.829-.706l-.086-.029q-.686-.233-1.354-.519l-.009,0c-.42-.181-.833-.382-1.24-.593-.053-.028-.107-.054-.159-.082-.372-.2-.735-.413-1.094-.637q-.159-.1-.316-.2c-.33-.216-.656-.441-.973-.679l-.1-.076.07-.039,5.751-3.137a3.076,3.076,0,0,0,1.6-2.7v-2.62l-.167-.2a12.143,12.143,0,0,1-2.183-4.521l-.066-.288-.248-.161a1.205,1.205,0,0,1-.559-1.012V17.5a1.188,1.188,0,0,1,.405-.889l.24-.217V12.346l-.007-.1A4.38,4.38,0,0,1,14.645,9.08C15.7,7.881,17.5,7.273,20,7.273s4.288.6,5.343,1.793a4.453,4.453,0,0,1,1.028,3.186L26.364,16.4l.24.217a1.189,1.189,0,0,1,.405.889v2.578a1.215,1.215,0,0,1-.859,1.145l-.361.111-.116.36a13.455,13.455,0,0,1-1.815,3.66c-.191.269-.376.508-.535.69l-.18.206v2.69a3.058,3.058,0,0,0,1.7,2.751L31,34.775l.116.06C31.038,34.894,30.958,34.948,30.879,35.005Z"/>
</svg>
