<svg id="coin" xmlns="http://www.w3.org/2000/svg" width="57.684" height="38.456" viewBox="0 0 57.684 38.456">
  <g id="Group_5637" data-name="Group 5637" transform="translate(1.125 1.015)">
    <path id="Path_5881" data-name="Path 5881" d="M20.875,57.235v7.424c0,2.05,8.453,3.712,18.88,3.712s18.88-1.663,18.88-3.712V57.235Z" transform="translate(-20.875 -42.946)" fill="#fda400"/>
    <ellipse id="Ellipse_566" data-name="Ellipse 566" cx="18.88" cy="3.713" rx="18.88" ry="3.713" transform="translate(0 10.576)" fill="#fccf00"/>
    <path id="Path_5882" data-name="Path 5882" d="M48.375,76.2v7.424c0,2.051,8.453,3.712,18.88,3.712s18.88-1.662,18.88-3.712V76.2Z" transform="translate(-30.7 -50.911)" fill="#fda400"/>
    <ellipse id="Ellipse_567" data-name="Ellipse 567" cx="18.88" cy="3.713" rx="18.88" ry="3.713" transform="translate(17.675 21.574)" fill="#fccf00"/>
    <path id="Path_5883" data-name="Path 5883" d="M34.625,39v7.424c0,2.05,8.453,3.712,18.88,3.712s18.88-1.662,18.88-3.712V39Z" transform="translate(-25.788 -35.287)" fill="#fda400"/>
    <ellipse id="Ellipse_568" data-name="Ellipse 568" cx="18.88" cy="3.713" rx="18.88" ry="3.713" transform="translate(8.837 0)" fill="#fccf00"/>
  </g>
  <g id="Group_5638" data-name="Group 5638" transform="translate(0 0)">
    <path id="Path_5884" data-name="Path 5884" d="M76.78,56.929c-.485-3.562-12.462-4.309-17.646-4.466V47.007c4.586-.629,8.837-1.8,8.837-4V40.313a1.131,1.131,0,0,0-2.25,0l.008,2.638c-.183.406-2.437,1.489-7.633,2.169-.028,0-.055-.008-.084-.008a1.267,1.267,0,0,0-.429.074,80.7,80.7,0,0,1-9.617.514c-12.559,0-17.488-2.143-17.755-2.7V37.974C35.3,40.269,47.324,40.3,47.967,40.3c.817,0,20-.053,20-4.728s-19.188-4.728-20-4.728q-1.282,0-2.522.032a1.067,1.067,0,0,0-1.093,1.044,1.082,1.082,0,0,0,1.157.986q1.206-.032,2.457-.032c12.233,0,17.225,2.03,17.733,2.7-.507.665-5.5,2.7-17.732,2.7s-17.225-2.031-17.732-2.7c.248-.318,1.694-1.182,5.939-1.869a1.029,1.029,0,0,0,.908-1.178,1.121,1.121,0,0,0-1.306-.82c-5.258.851-7.814,2.116-7.814,3.867V42.13c-5.862.822-8.837,2.173-8.837,4.021v7.424c0,3.4,10.341,4.339,14.786,4.586h.071a1.083,1.083,0,0,0,1.159-.984,1.067,1.067,0,0,0-1.091-1.046c-8.825-.491-12.4-2-12.676-2.56v-5.02c5.09,2.294,17.112,2.329,17.755,2.329s12.665-.035,17.755-2.329v3.872H56.8c-.8,0-19.37.058-19.976,4.507a.909.909,0,0,0-.029.222v7.425c0,4.674,19.188,4.728,20,4.728s20-.054,20-4.728V57.152a.909.909,0,0,0-.029-.223ZM21.4,46.152c.276-.365,1.979-1.328,6.99-2.026,2.808,3.557,18.835,3.6,19.58,3.6.264,0,2.454-.007,5.29-.174A62.664,62.664,0,0,1,39.13,48.849c-12.233,0-17.227-2.031-17.733-2.7ZM56.8,67.274c-12.559,0-17.488-2.143-17.755-2.7V59.549c5.09,2.294,17.112,2.33,17.755,2.33.951,0,1.9-.014,2.828-.041a1.066,1.066,0,0,0,1.088-1.048,1.083,1.083,0,0,0-1.161-.982c-.9.027-1.827.04-2.753.04-12.233,0-17.225-2.03-17.733-2.7.506-.666,5.5-2.7,17.733-2.7,12.2,0,17.2,2.023,17.729,2.694-.177.2-1.15,1.049-5.48,1.8a1.026,1.026,0,0,0-.893,1.188,1.124,1.124,0,0,0,1.316.806,22.2,22.2,0,0,0,5.086-1.373l.006,4.962c-.451.987-6.77,2.749-17.766,2.749Z" transform="translate(-19.125 -30.848)" fill="#5b2300"/>
    <path id="Path_5885" data-name="Path 5885" d="M88.779,80.272c-.28.025-.566.049-.854.072A1.057,1.057,0,0,0,86.895,81.4a1.08,1.08,0,0,0,1.127.972.8.8,0,0,0,.1,0q.45-.035.884-.075a1.048,1.048,0,0,0,1.007-1.111,1.1,1.1,0,0,0-1.231-.909Z" transform="translate(-43.337 -51.604)" fill="#5b2300"/>
    <path id="Path_5886" data-name="Path 5886" d="M52.5,33.3a.807.807,0,0,0,.1,0l.514-.038a1.054,1.054,0,0,0,1.034-1.091,1.1,1.1,0,0,0-1.209-.933l-.534.04a1.057,1.057,0,0,0-1.031,1.055A1.08,1.08,0,0,0,52.5,33.3Z" transform="translate(-30.646 -31.009)" fill="#5b2300"/>
  </g>
</svg>
