<svg xmlns="http://www.w3.org/2000/svg" width="15.999" height="16" viewBox="0 0 15.999 16">
  <g id="Group_5178" data-name="Group 5178" transform="translate(0)">
    <g id="plus_1_" data-name="plus (1)" transform="translate(7.169 0)">
      <g id="Group_5173" data-name="Group 5173">
        <g id="Group_5172" data-name="Group 5172">
          <path id="Path_5848" data-name="Path 5848" d="M4.415,0A4.415,4.415,0,1,0,8.831,4.415,4.42,4.42,0,0,0,4.415,0Zm0,8.147A3.731,3.731,0,1,1,8.147,4.415,3.736,3.736,0,0,1,4.415,8.147Z" fill="#c73030"/>
        </g>
      </g>
      <g id="Group_5175" data-name="Group 5175" transform="translate(2.363 2.333)">
        <g id="Group_5174" data-name="Group 5174">
          <path id="Path_5849" data-name="Path 5849" d="M140.784,136.948h-1.368V135.58a.342.342,0,1,0-.684,0v1.368h-1.368a.342.342,0,0,0,0,.684h1.368V139a.342.342,0,1,0,.684,0v-1.368h1.368a.342.342,0,0,0,0-.684Z" transform="translate(-137.022 -135.238)" fill="#c73030"/>
        </g>
      </g>
    </g>
    <g id="Group_5177" data-name="Group 5177" transform="translate(0 2.754)">
      <path id="Path_5850" data-name="Path 5850" d="M2501.245,370.769a.927.927,0,0,0,.163,1.363,1.091,1.091,0,0,0,.646.212h8.961a.3.3,0,1,0,0-.6h-8.961a.381.381,0,0,1-.393-.368.354.354,0,0,1,.086-.23l1.037-1.209h6.326a1.307,1.307,0,0,0,1.168-.692l.553-1.1.385-.761a4.258,4.258,0,0,1-.766.1c-.063,0-.125.009-.189.009a3.881,3.881,0,0,1-3.99-3.581c0-.051-.008-.1-.008-.151a3.572,3.572,0,0,1,.032-.452h-5.307l-.1-.337a1.288,1.288,0,0,0-1.239-.867h-.887a.3.3,0,1,0,0,.6h.887a.646.646,0,0,1,.619.434l2.011,6.424Zm-.068-6.854h4.363a4.575,4.575,0,0,0,4.566,4.257l-.411.816a.657.657,0,0,1-.585.346h-6.239Z" transform="translate(-2498.435 -362.109)" fill="#c73030"/>
      <path id="Path_5851" data-name="Path 5851" d="M2504,381.745a1.2,1.2,0,1,0,1.2,1.2A1.2,1.2,0,0,0,2504,381.745Zm0,1.806a.6.6,0,1,1,.6-.6A.6.6,0,0,1,2504,383.551Z" transform="translate(-2500.175 -370.907)" fill="#c73030"/>
      <path id="Path_5852" data-name="Path 5852" d="M2517.093,381.745a1.2,1.2,0,1,0,1.2,1.2A1.2,1.2,0,0,0,2517.093,381.745Zm0,1.806a.6.6,0,1,1,.6-.6A.6.6,0,0,1,2517.093,383.551Z" transform="translate(-2505.396 -370.907)" fill="#c73030"/>
    </g>
  </g>
</svg>
