<svg xmlns="http://www.w3.org/2000/svg" width="16.677" height="24" viewBox="0 0 16.677 24">
  <g id="delete_1_" data-name="delete (1)" transform="translate(0)">
    <path id="Path_5872" data-name="Path 5872" d="M15.271,2.713H12.7V2.578A2.581,2.581,0,0,0,10.123,0H6.554A2.581,2.581,0,0,0,3.976,2.578v.135H1.406A1.406,1.406,0,0,0,0,4.119V5.191a.469.469,0,0,0,.469.469h15.74a.469.469,0,0,0,.469-.469V4.119a1.406,1.406,0,0,0-1.406-1.406ZM5.382,2.578A1.173,1.173,0,0,1,6.554,1.406h3.568a1.173,1.173,0,0,1,1.172,1.172v.135H5.382Zm0,0" transform="translate(0)" fill="#707070"/>
    <path id="Path_5873" data-name="Path 5873" d="M12.949,150.738l1.136,16.28a.7.7,0,0,0,.7.654H26.575a.7.7,0,0,0,.7-.654l1.136-16.28ZM17.9,165.281h-.03a.7.7,0,0,1-.7-.673L16.7,153.593a.7.7,0,1,1,1.4-.06l.469,11.016a.7.7,0,0,1-.673.732Zm3.486-.7a.7.7,0,0,1-1.406,0V153.563a.7.7,0,0,1,1.406,0Zm2.812.03a.7.7,0,0,1-.7.673h-.03a.7.7,0,0,1-.673-.732l.469-11.016a.7.7,0,0,1,1.405.06Zm0,0" transform="translate(-12.342 -143.672)" fill="#707070"/>
  </g>
</svg>
