<svg xmlns="http://www.w3.org/2000/svg" width="16" height="10.3" viewBox="0 0 16 10.3">
  <g id="interface" transform="translate(0 0)">
    <g id="Group_5223" data-name="Group 5223" transform="translate(5.425 2.575)">
      <g id="Group_5222" data-name="Group 5222">
        <path id="Path_5860" data-name="Path 5860" d="M158.991,156.416a2.575,2.575,0,1,0,2.575,2.575A2.577,2.577,0,0,0,158.991,156.416Zm-.2,1.811a.591.591,0,0,0-.586.586h-.852a1.455,1.455,0,0,1,1.438-1.438Z" transform="translate(-156.416 -156.416)" fill="#bebebe"/>
      </g>
    </g>
    <g id="Group_5225" data-name="Group 5225" transform="translate(0 0)">
      <g id="Group_5224" data-name="Group 5224" transform="translate(0 0)">
        <path id="Path_5861" data-name="Path 5861" d="M15.814,86.793c-.87-1.083-3.978-4.617-7.814-4.617S1.057,85.71.186,86.793a.854.854,0,0,0,0,1.065c.87,1.083,3.978,4.617,7.814,4.617s6.943-3.534,7.814-4.617A.854.854,0,0,0,15.814,86.793ZM8,91.055a3.729,3.729,0,1,1,3.729-3.729A3.729,3.729,0,0,1,8,91.055Z" transform="translate(0 -82.176)" fill="#bebebe"/>
      </g>
    </g>
  </g>
</svg>
