<svg id="folder_2_" data-name="folder (2)" xmlns="http://www.w3.org/2000/svg" width="16" height="16" viewBox="0 0 16 16">
  <g id="Group_5236" data-name="Group 5236">
    <g id="Group_5235" data-name="Group 5235">
      <rect id="Rectangle_5170" data-name="Rectangle 5170" width="4" height="3" transform="translate(9 10.472)" fill="#707070"/>
      <path id="Path_5870" data-name="Path 5870" d="M15.333,2H9.011L7.785.28A.666.666,0,0,0,7.241,0H2a.666.666,0,0,0-.667.667V2L.67,2h0A.667.667,0,0,0,0,2.667V15.333A.666.666,0,0,0,.667,16H15.333A.666.666,0,0,0,16,15.333V2.667A.666.666,0,0,0,15.333,2ZM14,13.333a.666.666,0,0,1-.667.667H8.667A.666.666,0,0,1,8,13.333V10.667A.666.666,0,0,1,8.667,10h4.667a.666.666,0,0,1,.667.667v2.667ZM14.667,4H7.021L5.886,2.317a.666.666,0,0,0-.549-.294L2.667,2.01V1.333H6.9l1.226,1.72a.665.665,0,0,0,.543.28h6V4Z" fill="#707070"/>
    </g>
  </g>
</svg>
