<svg xmlns="http://www.w3.org/2000/svg" width="12" height="16" viewBox="0 0 12 16">
  <g id="flags" transform="translate(-63.998)">
    <g id="Group_4433" data-name="Group 4433" transform="translate(63.998)">
      <path id="Path_4516" data-name="Path 4516" d="M75.731,1.933a.464.464,0,0,0-.467,0,3.717,3.717,0,0,1-1.827.467,3.483,3.483,0,0,1-2.507-.987,4.021,4.021,0,0,0-2.9-1.147,4.176,4.176,0,0,0-2.435.757V.8A.8.8,0,0,0,64,.8V15.2a.8.8,0,0,0,1.6,0V8.267a.467.467,0,0,0,.243-.1,3.616,3.616,0,0,1,2.192-.7,3.488,3.488,0,0,1,2.512.987A4.019,4.019,0,0,0,73.438,9.6a4.168,4.168,0,0,0,2.331-.68A.533.533,0,0,0,76,8.467V2.4A.533.533,0,0,0,75.731,1.933Z" transform="translate(-63.998 0)" fill="#4688f1"/>
    </g>
  </g>
</svg>
