<svg id="like" xmlns="http://www.w3.org/2000/svg" width="18" height="16" viewBox="0 0 18 16">
  <g id="Path_4919" data-name="Path 4919" transform="translate(0 -1.826)" fill="none">
    <path d="M17.97,6.6A4.993,4.993,0,0,0,13.1,1.826,4.888,4.888,0,0,0,8.951,4.112,4.706,4.706,0,0,0,4.9,1.826,4.992,4.992,0,0,0,.03,6.6,4.709,4.709,0,0,0,.183,8.41a7.719,7.719,0,0,0,2.492,3.976l6.271,5.441,6.379-5.44A7.72,7.72,0,0,0,17.817,8.41,4.719,4.719,0,0,0,17.97,6.6Z" stroke="none"/>
    <path d="M 4.901305198669434 2.826000213623047 C 3.925825119018555 2.826000213623047 3.003214836120605 3.203489303588867 2.303435325622559 3.88893985748291 C 1.584184646606445 4.593470573425293 1.13044548034668 5.58866024017334 1.02580451965332 6.691189765930176 L 1.022144317626953 6.728640556335449 L 1.016124725341797 6.764360427856445 C 1.015275955200195 6.769390106201172 0.9337959289550781 7.278090476989746 1.154144287109375 8.17003059387207 C 1.477575302124023 9.480319976806641 2.230025291442871 10.67660999298096 3.330715179443359 11.63008975982666 L 8.95194149017334 16.50693893432617 L 14.67314910888672 11.62741470336914 C 15.77180480957031 10.67441272735596 16.52323150634766 9.478960990905762 16.8463249206543 8.169770240783691 C 17.06643486022949 7.27910041809082 16.98764419555664 6.782740592956543 16.98418426513672 6.762040138244629 L 16.97832489013672 6.727009773254395 L 16.9749641418457 6.69163990020752 C 16.87017440795898 5.589010238647461 16.41637420654297 4.593770027160645 15.69714546203613 3.889269828796387 C 14.99736499786377 3.203819274902344 14.07468509674072 2.826330184936523 13.09909439086914 2.826330184936523 C 11.76285552978516 2.826330184936523 10.49816513061523 3.5218505859375 9.798584938049316 4.641469955444336 L 8.941184997558594 6.013649940490723 L 8.097305297851563 4.633120536804199 C 7.405614852905273 3.501560211181641 6.210844993591309 2.826000213623047 4.901305198669434 2.826000213623047 M 4.901305198669434 1.826000213623047 C 6.580605506896973 1.826000213623047 8.079205513000488 2.686149597167969 8.950525283813477 4.111570358276367 C 9.829814910888672 2.704349517822266 11.39245510101318 1.826330184936523 13.09909439086914 1.826330184936523 C 15.66079521179199 1.826330184936523 17.70773506164551 3.832250595092773 17.97047424316406 6.597040176391602 C 17.99090576171875 6.719160079956055 18.07606506347656 7.361880302429199 17.81712532043457 8.409680366516113 C 17.44394493103027 9.921810150146484 16.58196449279785 11.29660034179688 15.32500457763672 12.38577079772949 L 8.946374893188477 17.82600021362305 L 2.675395011901855 12.38544082641602 C 1.418434143066406 11.29660034179688 0.5564556121826172 9.921480178833008 0.1832847595214844 8.409680366516113 C -0.07565498352050781 7.361550331115723 0.009504318237304688 6.718830108642578 0.03027534484863281 6.596710205078125 C 0.2926750183105469 3.831920623779297 2.33995532989502 1.826000213623047 4.901305198669434 1.826000213623047 Z" stroke="none" fill="#c73030"/>
  </g>
</svg>
