<svg id="Group_8392" data-name="Group 8392" xmlns="http://www.w3.org/2000/svg" width="1920" height="1080" viewBox="0 0 1920 1080">
  <g id="Rectangle_5297" data-name="Rectangle 5297" fill="#f3f3f3" stroke="#707070" stroke-width="1">
    <rect width="1920" height="1080" stroke="none"/>
    <rect x="0.5" y="0.5" width="1919" height="1079" fill="none"/>
  </g>
  <g id="Group_6156" transform="translate(607.78 170)">
    <path id="Path_12397" d="M203.818,404.782a300.458,300.458,0,0,1,65.155,9.344C403.83,448.724,492.725,532.821,535.909,665.4c5.556,16.668,1.01,23.739-15.91,28.538-38.639,10.859-68.439-2.778-88.642-42.174C410.4,611.108,382.87,576.51,346,549.741c-133.341-96.976-322.747-53.033-400.277,92.43a194.515,194.515,0,0,1-17.678,29.547c-18.183,23.738-54.8,32.578-82.076,20.456-12.88-5.556-13.89-14.9-10.1-27.022Q-115.267,509.839,31.08,438.875a342.461,342.461,0,0,1,109.1-31.315,382.4,382.4,0,0,1,63.64-2.778Z" transform="translate(166.065 -404.48)" fill="#d4d4d4"/>
    <path id="Path_12401" d="M185.755,873.093C24.382,874.1-113.505,773.592-162.5,620.047c-7.829-24.5-3.283-31.567,22.224-35.86,37.881-6.314,61.62,6.313,81.571,45.2C-34.712,676.617-.872,714.5,44.08,742.277,176.664,823.6,352.938,775.36,425.922,637.725c4.041-7.829,8.081-15.658,12.88-23.234a71.15,71.15,0,0,1,85.106-27.527c13.385,5.051,16.415,13.637,12.122,27.275-44.7,135.109-135.867,219.71-274.259,252.792a228.434,228.434,0,0,1-36.871,5.809C212.02,873.85,198.888,873.093,185.755,873.093Z" transform="translate(166.197 -133.365)" fill="#d4d4d4"/>
    <path id="Path_12402" d="M240.179,784.779c-53.286,70.712-186.628,105.562-275.522,24.75-81.318-73.489-85.106-204.053-8.081-279.816,81.571-80.308,209.861-74.752,284.361,12.122-19.951,37.629-51.771,48.741-88.894,28.285-37.881-20.709-75-26.517-114.148-4.8C-10.089,592.09-31.05,663.307-6.553,716.845c22.729,49.751,83.086,73.742,136.119,53.539a158.79,158.79,0,0,0,29.547-14.142c19.446-12.88,37.628-10.354,54.549,3.536C222.754,767.354,230.835,776.193,240.179,784.779Z" transform="translate(268.601 -300.104)" fill="#d4d4d4"/>
  </g>
</svg>
