<svg id="logout_1_" data-name="logout (1)" xmlns="http://www.w3.org/2000/svg" width="16" height="16.001" viewBox="0 0 16 16.001">
  <g id="Group_5234" data-name="Group 5234" transform="translate(0)">
    <g id="Group_5233" data-name="Group 5233">
      <path id="Path_5866" data-name="Path 5866" d="M305.251,151.734a.67.67,0,0,0-.144-.216l-1.986-1.986a.662.662,0,1,0-.936.936l.856.856h-3.7a.662.662,0,1,0,0,1.324h3.7l-.856.856a.662.662,0,1,0,.936.936l1.986-1.986a.656.656,0,0,0,.144-.216A.663.663,0,0,0,305.251,151.734Z" transform="translate(-289.301 -144.656)" fill="#707070"/>
      <path id="Path_5867" data-name="Path 5867" d="M11.374,9.334a.667.667,0,0,0-.668.667v3.334H8.033V2.667a.668.668,0,0,0-.476-.639L5.235,1.333h5.47V4.667a.668.668,0,0,0,1.336,0v-4A.667.667,0,0,0,11.374,0H.682A.6.6,0,0,0,.613.013a.661.661,0,0,0-.283.1C.315.121.3.121.283.132S.276.143.271.147A.661.661,0,0,0,.093.358.544.544,0,0,0,.074.414.631.631,0,0,0,.021.57a.414.414,0,0,0,0,.058C.023.641.014.653.014.667V14a.667.667,0,0,0,.537.653l6.682,1.333A.623.623,0,0,0,7.364,16a.668.668,0,0,0,.668-.667v-.667h3.341A.667.667,0,0,0,12.042,14V10A.667.667,0,0,0,11.374,9.334Z" transform="translate(-0.014)" fill="#707070"/>
    </g>
  </g>
</svg>
