<svg width="288" height="288" xmlns="http://www.w3.org/2000/svg" version="1.1">
 <g>
  <title>Layer 1</title>
  <g id="SvgjsG1008" stroke="null" transform="rotate(-135 174.371 143.36) matrix(0.899408 0 0 0.899408 -64.0021 -111.884)">
   <svg enable-background="new 0 0 295 295" viewBox="0 0 295 295" width="288" height="288" id="svg_3" x="121.034" y="139.78839" stroke="null" xmlns="http://www.w3.org/2000/svg">
    <path d="m290.156,23.89c-0.482,-10.311 -8.733,-18.562 -19.044,-19.044l-103.107,-4.823c-5.62,-0.272 -11.097,1.855 -15.077,5.836l-147.07,147.071c-3.75,3.751 -5.858,8.837 -5.858,14.142s2.107,10.392 5.858,14.143l107.929,107.928c3.904,3.905 9.023,5.857 14.142,5.857c5.118,0 10.237,-1.953 14.143,-5.857l147.069,-147.069c3.98,-3.98 6.1,-9.454 5.837,-15.077l-4.822,-103.107zm-37.675,52.197c-9.269,9.269 -24.298,9.269 -33.567,0s-9.269,-24.298 0,-33.567s24.298,-9.269 33.567,0s9.27,24.297 0,33.567z" fill="#c73030" class="color000 svgShape" id="svg_4" stroke="null"/>
   </svg>
  </g>
  <ellipse stroke="#000" stroke-width="0" ry="20.86207" rx="20.89655" id="svg_5" cy="143.41379" cx="64.86207" fill="#ffffff"/>
 </g>

</svg>