<svg xmlns="http://www.w3.org/2000/svg" width="32.162" height="38.594" viewBox="0 0 32.162 38.594"><path d="M30.553,25.935a.638.638,0,0,1-.638-.638V18.831l-.922.615a.638.638,0,0,1-.708-1.062L30.2,17.107a.638.638,0,0,1,.992.531V25.3A.638.638,0,0,1,30.553,25.935Z" transform="translate(-14.452 -7.426)"/><path d="M36.188,19.3A8.45,8.45,0,0,0,27.594,11,8.45,8.45,0,0,0,19,19.3a8.45,8.45,0,0,0,8.594,8.3,8.459,8.459,0,0,0,8.594-8.3Zm-8.594,7.021A7.15,7.15,0,0,1,20.322,19.3a7.276,7.276,0,0,1,14.544,0,7.158,7.158,0,0,1-7.272,7.021Z" transform="translate(-11.474 -5.256)"/><path d="M39.283,36.219,32.7,24.949a5.517,5.517,0,0,1,1.029-.5A3.773,3.773,0,0,0,35.714,23.1a3.612,3.612,0,0,0,.215-2.344,3.863,3.863,0,0,1-.031-1.373,3.785,3.785,0,0,1,.707-1.118,3.7,3.7,0,0,0,1.04-2.182h0a3.7,3.7,0,0,0-1.031-2.188,3.778,3.778,0,0,1-.7-1.121,3.864,3.864,0,0,1,.038-1.373,3.61,3.61,0,0,0-.2-2.345,3.764,3.764,0,0,0-1.981-1.366,3.97,3.97,0,0,1-1.206-.643,3.842,3.842,0,0,1-.65-1.189A3.7,3.7,0,0,0,30.531,3.9a3.809,3.809,0,0,0-2.388-.211,4.048,4.048,0,0,1-1.4.029,3.848,3.848,0,0,1-1.139-.7A3.836,3.836,0,0,0,23.38,2h-.005A3.843,3.843,0,0,0,21.15,3.012a3.883,3.883,0,0,1-1.142.689,4.089,4.089,0,0,1-1.4-.038,3.807,3.807,0,0,0-2.389.2,3.7,3.7,0,0,0-1.392,1.944,3.843,3.843,0,0,1-.657,1.186,3.961,3.961,0,0,1-1.211.638,3.772,3.772,0,0,0-1.986,1.357,3.614,3.614,0,0,0-.215,2.344,3.859,3.859,0,0,1,.031,1.373,3.785,3.785,0,0,1-.707,1.118A3.7,3.7,0,0,0,9.042,16a3.7,3.7,0,0,0,1.031,2.189,3.778,3.778,0,0,1,.7,1.121,3.855,3.855,0,0,1-.038,1.373,3.618,3.618,0,0,0,.2,2.345A3.772,3.772,0,0,0,12.92,24.4a5.528,5.528,0,0,1,1.027.5L7.3,36.137a.629.629,0,0,0,.045.708.657.657,0,0,0,.684.23l5.03-1.312,1.17,4.316a.646.646,0,0,0,.543.469.654.654,0,0,0,.649-.313l6.317-10.708a2.889,2.889,0,0,0,1.572.555h.005a2.891,2.891,0,0,0,1.57-.547l6.261,10.74a.653.653,0,0,0,.564.319.615.615,0,0,0,.083-.006.647.647,0,0,0,.545-.466l1.189-4.308,5.026,1.335a.657.657,0,0,0,.685-.226.629.629,0,0,0,.049-.708ZM15.078,38.261l-.931-3.44a.652.652,0,0,0-.795-.453L9.208,35.444l5.517-9.328.049.114a3.7,3.7,0,0,0,1.382,1.952,3.818,3.818,0,0,0,2.388.211,4.067,4.067,0,0,1,1.4-.03,2.474,2.474,0,0,1,.738.4Zm8.231-9.455a2.873,2.873,0,0,1-1.431-.757,4.773,4.773,0,0,0-1.6-.916,3.125,3.125,0,0,0-.8-.1,8.91,8.91,0,0,0-1.1.091,2.872,2.872,0,0,1-1.57-.049,2.784,2.784,0,0,1-.833-1.334,4.735,4.735,0,0,0-.934-1.6,4.866,4.866,0,0,0-1.629-.924,2.861,2.861,0,0,1-1.354-.824,2.733,2.733,0,0,1-.041-1.541,4.752,4.752,0,0,0,.006-1.867,4.661,4.661,0,0,0-.922-1.573,2.792,2.792,0,0,1-.764-1.41,2.793,2.793,0,0,1,.772-1.4,4.658,4.658,0,0,0,.933-1.565,4.756,4.756,0,0,0,0-1.866A2.735,2.735,0,0,1,12.1,9.631a2.863,2.863,0,0,1,1.359-.818A4.882,4.882,0,0,0,15.091,7.9a4.751,4.751,0,0,0,.941-1.6,2.788,2.788,0,0,1,.837-1.332,2.886,2.886,0,0,1,1.57-.04,5.044,5.044,0,0,0,1.9.006,4.785,4.785,0,0,0,1.6-.908,2.886,2.886,0,0,1,1.434-.75h0a2.878,2.878,0,0,1,1.431.757,4.764,4.764,0,0,0,1.594.916,5.017,5.017,0,0,0,1.9,0A2.883,2.883,0,0,1,29.872,5,2.784,2.784,0,0,1,30.7,6.336a4.735,4.735,0,0,0,.932,1.6,4.869,4.869,0,0,0,1.626.924,2.855,2.855,0,0,1,1.355.825,2.732,2.732,0,0,1,.041,1.541,4.748,4.748,0,0,0-.007,1.867,4.672,4.672,0,0,0,.925,1.57,2.784,2.784,0,0,1,.763,1.409,2.788,2.788,0,0,1-.771,1.4,4.657,4.657,0,0,0-.927,1.567,4.763,4.763,0,0,0,0,1.867,2.735,2.735,0,0,1-.049,1.541,2.853,2.853,0,0,1-1.359.818,4.9,4.9,0,0,0-1.634.915,4.739,4.739,0,0,0-.94,1.6,2.794,2.794,0,0,1-.84,1.33,2.893,2.893,0,0,1-1.57.04,5.018,5.018,0,0,0-1.9-.006,4.784,4.784,0,0,0-1.6.908,2.884,2.884,0,0,1-1.434.752Zm9.926,5.612a.652.652,0,0,0-.8.447L31.49,38.3l-5.552-9.521a2.494,2.494,0,0,1,.739-.394,4.087,4.087,0,0,1,1.4.04,3.811,3.811,0,0,0,2.389-.2,3.706,3.706,0,0,0,1.392-1.945l.049-.114,5.469,9.353Z" transform="translate(-7.208 -2)"/></svg>