<svg xmlns="http://www.w3.org/2000/svg" width="32.162" height="38.594" viewBox="0 0 32.162 38.594"><g transform="translate(11.452)"><path d="M86.716,4.769a5.561,5.561,0,0,0-10-2.485.654.654,0,1,0,1.056.772,4.253,4.253,0,0,1,7.645,1.9.655.655,0,0,0,.647.562.7.7,0,0,0,.093-.007A.654.654,0,0,0,86.716,4.769Z" transform="translate(-76.593)"/></g><g transform="translate(1.308 8.504)"><path d="M51.638,47.96,49.711,44.69a.639.639,0,0,0-.551-.318H47.314a.654.654,0,0,0,0,1.308H48.8l1.156,1.962H23.961l1.156-1.962h.68a.654.654,0,0,0,0-1.308H24.754a.639.639,0,0,0-.551.318L22.276,47.96a.665.665,0,0,0-.008.659.64.64,0,0,0,.559.332h28.26a.64.64,0,0,0,.559-.332A.665.665,0,0,0,51.638,47.96Z" transform="translate(-22.185 -44.372)"/></g><g transform="translate(16.699 3.665)"><path d="M116.143,21.521a.653.653,0,0,0-.407-.292l-8.917-2.086a.654.654,0,0,0-.786.488l-.672,2.875a.654.654,0,0,0,1.274.3l.524-2.237,7.643,1.788-1.2,5.135a.653.653,0,0,0,.488.786.662.662,0,0,0,.15.017.653.653,0,0,0,.636-.5l1.35-5.772A.652.652,0,0,0,116.143,21.521Z" transform="translate(-105.343 -19.126)"/></g><g transform="translate(3.859 1.988)"><g transform="translate(0)"><path d="M48.335,15.992l-.6-5.041a.655.655,0,0,0-.727-.573L36.071,11.671a.654.654,0,0,0-.573.727l.994,8.408a.654.654,0,0,0,.649.578.715.715,0,0,0,.078,0,.655.655,0,0,0,.573-.727l-.917-7.759,9.642-1.14.519,4.392a.654.654,0,0,0,1.3-.153Z" transform="translate(-35.494 -10.374)"/></g></g><g transform="translate(8.502 6.28)"><g transform="translate(0)"><path d="M74.123,38.669l-1.3-5.4a.654.654,0,0,0-.789-.483L61.5,35.322a.654.654,0,0,0-.483.789l.649,2.7a.654.654,0,1,0,1.272-.306l-.5-2.063,9.266-2.228,1.145,4.763a.654.654,0,0,0,1.272-.306Z" transform="translate(-60.997 -32.769)"/></g></g><g transform="translate(0 11.775)"><g transform="translate(0)"><path d="M46.233,62.062a.648.648,0,0,0-.643-.621h-28.3a.648.648,0,0,0-.643.621L15.359,87.573a.661.661,0,0,0,.176.484.639.639,0,0,0,.466.2H46.877a.641.641,0,0,0,.467-.2.662.662,0,0,0,.176-.484ZM16.679,86.952l1.221-24.2h27.08l1.221,24.2Z" transform="translate(-15.359 -61.441)"/></g></g><g transform="translate(18.931 14.391)"><path d="M118.014,75.093a1.962,1.962,0,1,0,1.962,1.962A1.964,1.964,0,0,0,118.014,75.093Zm0,2.617a.654.654,0,1,1,.654-.654A.655.655,0,0,1,118.014,77.71Z" transform="translate(-116.052 -75.093)"/></g><g transform="translate(9.305 14.391)"><path d="M66.814,75.093a1.962,1.962,0,1,0,1.962,1.962A1.964,1.964,0,0,0,66.814,75.093Zm0,2.617a.654.654,0,1,1,.654-.654A.655.655,0,0,1,66.814,77.71Z" transform="translate(-64.852 -75.093)"/></g><g transform="translate(10.521 16.354)"><path d="M82.145,85.333h-.05a.654.654,0,0,0-.654.654.647.647,0,0,0,.05.252v3.346a4.252,4.252,0,0,1-8.5,0v-3.6a.654.654,0,1,0-1.308,0v3.6a5.56,5.56,0,1,0,11.12,0v-3.6A.654.654,0,0,0,82.145,85.333Z" transform="translate(-71.679 -85.333)"/></g></svg>