<svg xmlns="http://www.w3.org/2000/svg" width="16" height="20" viewBox="0 0 16 20"><defs><style>.a{fill:#707070;}</style></defs><path class="a" d="M91.647,9.249A4.461,4.461,0,0,0,94.91,7.894a4.479,4.479,0,0,0,1.352-3.27,4.479,4.479,0,0,0-1.352-3.27,4.608,4.608,0,0,0-6.526,0,4.479,4.479,0,0,0-1.352,3.269,4.479,4.479,0,0,0,1.352,3.27A4.462,4.462,0,0,0,91.647,9.249Zm0,0" transform="translate(-83.768 0)"/><path class="a" d="M15.961,252.806a11.435,11.435,0,0,0-.155-1.213,9.567,9.567,0,0,0-.3-1.22,6.029,6.029,0,0,0-.5-1.138,4.293,4.293,0,0,0-.755-.985,3.329,3.329,0,0,0-1.085-.682,3.745,3.745,0,0,0-1.385-.251,1.4,1.4,0,0,0-.751.319c-.225.147-.488.317-.782.5a4.478,4.478,0,0,1-1.012.446,3.925,3.925,0,0,1-2.475,0,4.468,4.468,0,0,1-1.011-.446c-.291-.186-.554-.356-.783-.505a1.4,1.4,0,0,0-.75-.319,3.74,3.74,0,0,0-1.385.251,3.326,3.326,0,0,0-1.085.682,4.293,4.293,0,0,0-.755.985,6.041,6.041,0,0,0-.5,1.138,9.59,9.59,0,0,0-.3,1.22,11.394,11.394,0,0,0-.155,1.214c-.025.367-.038.749-.038,1.134a3.19,3.19,0,0,0,.946,2.412,3.4,3.4,0,0,0,2.437.89h9.234a3.4,3.4,0,0,0,2.437-.89A3.189,3.189,0,0,0,16,253.94c0-.387-.013-.768-.039-1.134Zm0,0" transform="translate(0 -237.242)"/></svg>