<svg xmlns="http://www.w3.org/2000/svg" width="38.594" height="38.594" viewBox="0 0 38.594 38.594"><path d="M59.373,284.057l-.2.107a2.732,2.732,0,0,0-3.245-.812l-.011.006-.468.252a3.556,3.556,0,0,0-4.07-.368l-2.52,1.37H45.507a4.846,4.846,0,0,1-2.1-.48l-.461-.223a7.917,7.917,0,0,0-8.237.8c-.011.008-.022.017-.032.026l-1.114.991a3.864,3.864,0,0,1-1.458.812l-.633-2.075a.5.5,0,0,0-.48-.355H25.609a.5.5,0,0,0-.5.562l1.8,14.715a.5.5,0,0,0,.5.441h8.08a.5.5,0,0,0,.48-.647L34.9,295.7l3.306-2.088a1.99,1.99,0,0,1,1.451-.188l.031.007,6.724,1.238a8.705,8.705,0,0,0,5.377-.759.5.5,0,0,0,.061-.036l11.631-7.982a.5.5,0,0,0,.146-.672A3.193,3.193,0,0,0,59.373,284.057Zm-2.985.186a1.713,1.713,0,0,1,1.873.414l-4.41,2.378-.259.136a3.821,3.821,0,0,0-.6-1.1Zm-4.523-.124.012-.007a2.552,2.552,0,0,1,2.594.024l-2.242,1.207A3.812,3.812,0,0,0,50.8,284.7ZM27.849,298.827l-1.673-13.713h4.449l4.183,13.713Zm23.467-5.8a7.7,7.7,0,0,1-4.72.656l-6.708-1.235a2.991,2.991,0,0,0-2.18.3l-.023.014L34.6,294.706l-2.2-7.2a4.87,4.87,0,0,0,1.832-1.024l1.1-.977a6.918,6.918,0,0,1,7.181-.69l.461.223a5.856,5.856,0,0,0,2.534.58h4.473a2.829,2.829,0,0,1,2.775,2.3l-3.242-.147a19.417,19.417,0,0,0-3.529.163.5.5,0,1,0,.138.993,18.393,18.393,0,0,1,3.346-.154l3.816.173H53.3a.5.5,0,0,0,.5-.5c0-.081,0-.161-.008-.241l.523-.276,5.528-2.98a2.192,2.192,0,0,1,2.636.422Z" transform="translate(-25.108 -261.234)"/><path d="M76.974,432.876a1.578,1.578,0,1,0,1.578-1.578A1.578,1.578,0,0,0,76.974,432.876Zm1.578-.576a.576.576,0,1,1-.576.576.576.576,0,0,1,.576-.576Z" transform="translate(-72.641 -397.357)"/><path d="M218.143,30.445V28.793a3.8,3.8,0,1,0-7.609,0v1.652a3.8,3.8,0,1,0,7.609,0Zm-6.606,0V28.793a2.8,2.8,0,1,1,5.6,0v1.652a2.8,2.8,0,1,1-5.6,0Z" transform="translate(-195.035 -24.989)"/><path d="M79.417,148.764H91.69a.5.5,0,0,0,.5-.5v-1.15h8.4a.5.5,0,0,0,.5-.5v-3.253a3.758,3.758,0,0,0-3.52-3.747.585.585,0,0,0-.516.286,2.3,2.3,0,0,1-3.631-.089.5.5,0,0,0-.416-.2,3.719,3.719,0,0,0-1.845.538,4.217,4.217,0,0,0-2.942-1.458.61.61,0,0,0-.517.3,2.7,2.7,0,0,1-4.261-.1.5.5,0,0,0-.416-.2,4.2,4.2,0,0,0-2.913,1.27c-.063.065-.123.132-.182.2a3.731,3.731,0,0,0-1.71-.536.586.586,0,0,0-.516.286,2.3,2.3,0,0,1-3.631-.089.5.5,0,0,0-.416-.2A3.756,3.756,0,0,0,70,143.358v3.253a.5.5,0,0,0,.5.5h8.414v1.15A.5.5,0,0,0,79.417,148.764ZM92.8,140.623a3.306,3.306,0,0,0,4.948.013,2.756,2.756,0,0,1,2.346,2.722v2.752h-7.9V142.9a4.191,4.191,0,0,0-.463-1.919A2.712,2.712,0,0,1,92.8,140.623Zm-9.983-.928a3.706,3.706,0,0,0,5.595.013,3.22,3.22,0,0,1,2.78,3.186v4.867H79.919V142.9A3.239,3.239,0,0,1,82.814,139.7ZM71,146.11v-2.752a2.772,2.772,0,0,1,2.445-2.735,3.306,3.306,0,0,0,4.948.013,2.738,2.738,0,0,1,.979.345,4.2,4.2,0,0,0-.459,1.914v3.215Z" transform="translate(-66.25 -129.181)"/><path d="M337.915,55.1V53.652a3.393,3.393,0,0,0-6.785,0V55.1a3.393,3.393,0,0,0,6.785,0Zm-5.783,0V53.652a2.39,2.39,0,0,1,4.78,0V55.1a2.39,2.39,0,0,1-4.78,0Z" transform="translate(-305.551 -48.149)"/><path d="M106.431,55.1V53.652a3.392,3.392,0,0,0-6.785,0V55.1a3.392,3.392,0,0,0,6.785,0Zm-5.783,0V53.652a2.39,2.39,0,0,1,4.78,0V55.1a2.39,2.39,0,1,1-4.78,0Z" transform="translate(-93.416 -48.149)"/></svg>