<svg id="work" xmlns="http://www.w3.org/2000/svg" width="18.192" height="16" viewBox="0 0 18.192 16">
  <path id="Path_5878" data-name="Path 5878" d="M211,240h3.2v1.066H211Zm0,0" transform="translate(-203.503 -231.466)" fill="#707070"/>
  <path id="Path_5879" data-name="Path 5879" d="M14.759,84.259h-3v.533a.533.533,0,0,1-.533.533H6.964a.533.533,0,0,1-.533-.533v-.533h-3a1.6,1.6,0,0,1-1.517-1.094L0,77.41V89.06a1.6,1.6,0,0,0,1.6,1.6H16.593a1.6,1.6,0,0,0,1.6-1.6V77.411l-1.916,5.754a1.6,1.6,0,0,1-1.517,1.094Zm0,0" transform="translate(0 -74.66)" fill="#707070"/>
  <path id="Path_5880" data-name="Path 5880" d="M36.12,0H31.856a1.6,1.6,0,0,0-1.6,1.6v.533H25.809l2.01,6.031a.533.533,0,0,0,.506.364h3V7.995a.533.533,0,0,1,.533-.533H36.12a.533.533,0,0,1,.533.533v.533h3a.533.533,0,0,0,.506-.364l2.01-6.031H37.719V1.6A1.6,1.6,0,0,0,36.12,0Zm-4.8,2.132V1.6a.533.533,0,0,1,.533-.533H36.12a.533.533,0,0,1,.533.533v.533Zm0,0" transform="translate(-24.892 0)" fill="#707070"/>
</svg>
