<svg id="Group_8405" data-name="Group 8405" xmlns="http://www.w3.org/2000/svg" width="72" height="72" viewBox="0 0 72 72">
  <g id="currency" transform="translate(16 43.144)">
    <g id="Layer_5_58_" transform="translate(0 0)">
      <g id="Group_5068" data-name="Group 5068">
        <g id="Group_5067" data-name="Group 5067">
          <path id="Path_4885" data-name="Path 4885" d="M124.388,223.267a26.807,26.807,0,0,1-8.434,2.895c-2.747.434-7.914-.612-7.914-1.848,0-.468,4.532,1.154,7.273.417,2.1-.565,1.8-2.545.66-2.806s-7.8-2.716-10.641-2.8a48.867,48.867,0,0,0-6.249.732c-.548.09-.892.08-.927.608-.159,2.456-.473,7.478-.644,10.1,0,.055.073.8.684.276a3.161,3.161,0,0,1,2.474-1.012c1.361.311,13.135,2.483,14.759,2.1,2.323-.544,8.9-4.468,10.161-5.688C127.544,224.353,126.025,222.357,124.388,223.267Z" transform="translate(-86.511 -219.121)"/>
          <path id="Path_4886" data-name="Path 4886" d="M8.4,222.344l-6.168-.306a1.111,1.111,0,0,0-1.081.8L.026,233.093a.676.676,0,0,0,.651.879H7.513a.913.913,0,0,0,.933-.837l.751-9.878A.845.845,0,0,0,8.4,222.344Zm-3.631,10.27A1.717,1.717,0,1,1,6.471,230.9,1.711,1.711,0,0,1,4.765,232.613Z" transform="translate(0 -221.705)"/>
        </g>
      </g>
    </g>
  </g>
  <path id="img_quality_3" d="M36,72A36,36,0,1,1,72,36,36.069,36.069,0,0,1,36,72ZM36,4A32,32,0,1,0,68,36,32.062,32.062,0,0,0,36,4Zm0,62.665A30.667,30.667,0,1,1,66.667,36,30.7,30.7,0,0,1,36,66.667ZM36,5.853A30.147,30.147,0,1,0,66.148,36,30.18,30.18,0,0,0,36,5.853Z" transform="translate(0)" fill-rule="evenodd"/>
  <text id="COD" transform="translate(36 35.026)" font-size="21" font-family="SVN-Avenir Next Bold, SVN-Avenir Next" font-weight="700"><tspan x="-24.244" y="0">COD</tspan></text>
</svg>
