<svg xmlns="http://www.w3.org/2000/svg" width="72" height="72" viewBox="0 0 72 72">
  <path id="img_quality_4" d="M36,72A35.994,35.994,0,0,1,34.993.025C35.329.016,35.663,0,36,0c.32,0,.637.016.956.024A35.994,35.994,0,0,1,36,72ZM36,3.333A32.667,32.667,0,1,0,68.667,36,32.7,32.7,0,0,0,36,3.333ZM59.6,37.28l-.319,2.935,3.025.373-.159,1.444-7.035-.868.159-1.445,2.923.361.319-2.935-2.921-.36.157-1.445,7.033.869-.156,1.444Zm.828-3.464a2.053,2.053,0,0,1-1.743-.385,2.965,2.965,0,0,1-1.005-1.812l-.268-1.3-2.512.5-.3-1.429,6.927-1.377.563,2.724a2.885,2.885,0,0,1-.208,2.053,2.029,2.029,0,0,1-1.457,1.023Zm.6-2.863-.269-1.3-2.273.452.268,1.3a1.237,1.237,0,0,0,.505.841,1.128,1.128,0,0,0,.869.148,1.167,1.167,0,0,0,.76-.471A1.191,1.191,0,0,0,61.025,30.953ZM52.5,25.225l2.091-5.2L54.565,20l-3.82,2.831-.863-1.177,5.669-4.2.864,1.176-2.087,5.2.023.021,3.816-2.828.863,1.177L53.36,26.4,52.5,25.225Zm.8-12.185a1.48,1.48,0,0,1-.393-.5,1.442,1.442,0,0,0-.337-.461.231.231,0,0,0-.235-.023.515.515,0,0,0-.228.188l-.363-.452a.949.949,0,0,1,.513-.367.616.616,0,0,1,.572.1,1.677,1.677,0,0,1,.377.484,1.662,1.662,0,0,0,.363.475.236.236,0,0,0,.24.015.547.547,0,0,0,.241-.195l.341.488a.9.9,0,0,1-.516.36.645.645,0,0,1-.576-.105Zm-.261.235.52,1.765-.025.019-1.005-.747L52.283,13.3l-1.025.068-1.009-.748.011-.029,1.825-.025Zm-.1,3.176-2.561-1.9-1.043,1.443,2.161,1.6-.637.887-2.164-1.6-1.184,1.64,2.572,1.905-.639.881L45.7,18.535,49.845,12.8l3.733,2.765Zm-9.6,1.032,2.869-6.492,1.319.607-2.871,6.492Zm-2.283-.916.66-4.823-.029-.008-2.42,4.56-.971-.147-1.1-5.1h-.029l-.66,4.831-1.428-.216L36.043,8.6l1.873.284,1.1,5.477.029.005,2.54-4.928,1.863.281-.961,7.063-1.431-.216Zm-10.9-1.308-2.191.777.067,1.616-1.353.48.011.015-1.183.893a.789.789,0,0,1-.516-.264,4.44,4.44,0,0,1-.464-.529l-.3-.407a1.135,1.135,0,0,0-.733-.491,1.111,1.111,0,0,0-.84.261l-.911.691,1.712,2.292L22.3,21.46l-4.284-5.736,1.98-1.5a2.973,2.973,0,0,1,1.865-.708,1.874,1.874,0,0,1,1.485.829,1.574,1.574,0,0,1,.336.939,2.062,2.062,0,0,1-.3,1.033,1.54,1.54,0,0,1,1.1-.051,1.978,1.978,0,0,1,.869.7l.316.423a2.6,2.6,0,0,0,.44.453.858.858,0,0,0,.5.216l-.14-7.455,1.388-.493,4.691,5.936-1.416.5-.981-1.291Zm-7.917.007a1.04,1.04,0,0,0-.707-.445,1.2,1.2,0,0,0-.872.295l-.833.629,1.249,1.669.812-.613a1.351,1.351,0,0,0,.568-.749A.96.96,0,0,0,22.239,15.265Zm5.608-3.059-.031.009.1,2.641,1.527-.541Zm-.52-2.921.107.3-1.012.36-.3-.608a1.441,1.441,0,0,0,.459-.257.2.2,0,0,0,.049-.252L26.617,8.8a.22.22,0,0,0-.232-.18,1.361,1.361,0,0,0-.509.1l-.188-.627a3.045,3.045,0,0,1,1.4-.227.785.785,0,0,1,.695.5.605.605,0,0,1-.035.535,1.025,1.025,0,0,1-.42.384ZM20.808,23.348l-.856,1.16-4.813-3.645-1.2,1.631-.881-.667,3.28-4.444.88.667L15.993,19.7ZM17.231,30.3l-6.705-2.368.46-1.373,6.707,2.368Zm-4.591.408,1.268.131a2.945,2.945,0,0,1,2.721,3.329,2.843,2.843,0,0,1-3.261,2.7L12.1,36.731a2.993,2.993,0,0,1-2.067-1.052,3.219,3.219,0,0,1,.388-4.352A2.9,2.9,0,0,1,12.64,30.705ZM10.48,33.54a1.391,1.391,0,0,0,.427,1.2,2.185,2.185,0,0,0,1.312.548l1.279.131a2.136,2.136,0,0,0,1.4-.269,1.365,1.365,0,0,0,.631-1.1,1.422,1.422,0,0,0-.425-1.215,2.176,2.176,0,0,0-1.328-.557L12.5,32.148a2.09,2.09,0,0,0-1.389.281,1.4,1.4,0,0,0-.631,1.111Zm-2.285-.227.671.867-.113,1.264-.032.012-1.093-1.58.111-1.24,1.355-1.321.027.019L9.005,32.6l-.811.716Zm-.332-1.689a1.331,1.331,0,0,0-.035-.447.16.16,0,0,0-.169-.131l-.029,0a.187.187,0,0,0-.223.112,1.2,1.2,0,0,0-.1.429l-.536-.091a2.667,2.667,0,0,1,.317-1.16.635.635,0,0,1,.62-.349.514.514,0,0,1,.4.224.859.859,0,0,1,.143.463l.267.027-.081.919ZM12.3,38.556l1.14-.252a2.815,2.815,0,0,1,2.264.384A3.085,3.085,0,0,1,17,40.653l.567,2.475-3.088.681.151.663-.857.189L13.619,44l-2.948.653L10.1,42.177a3.035,3.035,0,0,1,.319-2.321,2.784,2.784,0,0,1,1.88-1.3Zm-1.133,3.385.243,1.052,1.884-.416-.271-1.184.857-.189.271,1.184,2.027-.449-.241-1.051a1.443,1.443,0,0,0-.768-1.017,2.013,2.013,0,0,0-1.4-.14l-1.151.253a1.988,1.988,0,0,0-1.2.716A1.439,1.439,0,0,0,11.168,41.941ZM36,62.28A24.959,24.959,0,0,0,57.8,49.436l.605.285a25.58,25.58,0,0,1-45.735-1.877l.676-.131A24.961,24.961,0,0,0,36,62.28ZM36,52A16,16,0,1,1,51.993,35.872c0,.043.007.085.007.128A15.989,15.989,0,0,1,36,52ZM23.7,44.823l3-1.095.107.124c.064.069.127.148.2.221l.243.224.547.5c.1.087.2.183.308.268l.348.252.756.535c.276.164.575.32.876.485.152.083.3.171.464.247l.5.2.516.205a3.028,3.028,0,0,0,.537.18l1.129.3c.4.064.819.116,1.235.169l.311.04h1.479l.615-.059a12.184,12.184,0,0,0,1.221-.193,11.522,11.522,0,0,0,2.315-.776,10.964,10.964,0,0,0,3.629-2.619l.343-.371c.1-.131.2-.259.3-.387a7.583,7.583,0,0,0,.539-.752,7.734,7.734,0,0,0,.435-.727c.065-.117.128-.232.187-.343l.155-.337a10.693,10.693,0,0,0,.457-1.145c.113-.319.164-.581.216-.755l.075-.268-.105.257c-.073.165-.152.423-.3.724a10.44,10.44,0,0,1-.572,1.063l-.187.308c-.072.1-.144.2-.223.309a6.4,6.4,0,0,1-.5.648,7.624,7.624,0,0,1-.592.656l-.325.331-.363.311a10.859,10.859,0,0,1-1.643,1.163,10.564,10.564,0,0,1-1.951.849,10.435,10.435,0,0,1-2.12.448c-.361.013-.719.065-1.077.043l-.536-.011c-.173-.021-.344-.041-.513-.064-.191-.021-.379-.045-.565-.068l-.28-.033-.24-.065-.931-.247-.9-.355a2.273,2.273,0,0,1-.423-.2l-.4-.217-.388-.208c-.121-.077-.236-.167-.351-.245-.227-.165-.451-.315-.656-.469l-.547-.5-.256-.228c-.077-.077-.143-.164-.213-.241l-.153-.176L32.2,41.724l-6.933-5.812L23.7,44.823Zm17.641-6.712V37.055h-.767V32.78h-1.38l-2.824,4.513.065.817h2.773v1.479h1.365V38.111Zm-7,1.479V32.683l-2.769.243v1.043h1.407v5.621h1.363ZM45.72,28.1l-.085-.1-.195-.22-.237-.217-.535-.485-.3-.265-.341-.248-.737-.521c-.26-.177-.56-.319-.851-.485l-.453-.244c-.152-.083-.323-.137-.487-.207-.333-.128-.669-.277-1.024-.393l-.952-.251-.151-.04a3.648,3.648,0,0,0-.588-.107l-.607-.081c-.2-.023-.413-.06-.6-.068H36.2l-.076.008-.3.028c-.2.021-.4.036-.6.061l-.6.105c-.4.056-.783.191-1.168.281-.376.139-.76.241-1.116.411l-.535.235c-.173.085-.341.18-.511.269l-.039.023c-.327.165-.624.375-.924.563-.3.212-.591.431-.864.653-.088.08-.167.157-.255.233a5.837,5.837,0,0,0-.505.465,7.963,7.963,0,0,0-.657.717c-.1.119-.2.237-.293.355s-.175.241-.261.36l-.244.345-.209.347a6.223,6.223,0,0,0-.364.649,10.233,10.233,0,0,0-.5,1.1c-.131.307-.188.56-.248.727l-.084.26.112-.247c.081-.159.169-.405.333-.691a9.632,9.632,0,0,1,.609-1.013,5.94,5.94,0,0,1,.424-.584l.24-.308.276-.3.284-.315c.107-.1.212-.2.32-.3a8.214,8.214,0,0,1,.7-.6,9.518,9.518,0,0,1,.784-.567c.125-.08.263-.153.395-.231.157-.092.309-.188.472-.276a10.153,10.153,0,0,1,.937-.428c.164-.063.324-.131.489-.189s.335-.1.5-.153c.335-.112.691-.163,1.032-.245.356-.04.7-.119,1.057-.125l.528-.031c.175,0,.351.007.527.009l.26.005h.035l.016,0,.036,0,.139.016.556.068.552.068c.177.028.32.081.48.12l.459.121a2.416,2.416,0,0,1,.452.14l.883.347c.279.132.54.289.8.425a3.9,3.9,0,0,1,.375.211l.341.244c.219.165.447.3.636.467s.364.333.536.488l.248.223c.069.083.137.164.205.24l.061.072.065.073L40.232,30.1l6.933,5.809.527-3L48.732,27,45.72,28.1ZM39.037,34.88l.139-.3.029,0v2.475h-1.6Zm15.415,14.6q.408-.618.777-1.264l.581.275.629.3a23.407,23.407,0,0,1-41.579-1.375l.632-.123.719-.14c.271.541.568,1.067.88,1.581A22.107,22.107,0,0,0,34.368,59.391c.54.037,1.083.06,1.632.06a23.423,23.423,0,0,0,13.741-4.483,22.659,22.659,0,0,0,4.807-5.431Zm-8.947,7.8a21.8,21.8,0,0,1-2.527,1.091c-.409.128-.839.209-1.259.316A22.155,22.155,0,0,0,45.505,57.284ZM54.627,42.16l6.668,2.472L60.812,46l-6.669-2.472Zm8.209,4.121L62.3,47.8h-.032l-.732-1.736.409-1.165Z" fill-rule="evenodd"/>
</svg>
