<svg xmlns="http://www.w3.org/2000/svg" width="72" height="72" viewBox="0 0 72 72">
  <g id="Group_8407" data-name="Group 8407" transform="translate(-1156 -464)">
    <g id="Group_5065" data-name="Group 5065" transform="translate(1157.785 464)">
      <path id="Path_4868" data-name="Path 4868" d="M546.439,1149.137a32.634,32.634,0,0,1,29.229,18.112h3.143a35.481,35.481,0,0,0-64.744,0h3.144A32.634,32.634,0,0,1,546.439,1149.137Z" transform="translate(-512.024 -1146.293)"/>
      <path id="Path_4869" data-name="Path 4869" d="M575.884,1234.2H510a35.489,35.489,0,0,0,68.83,0Z" transform="translate(-509.999 -1190.051)"/>
      <g id="Group_5058" data-name="Group 5058" transform="translate(17.575 48.7)">
        <path id="Path_4870" data-name="Path 4870" d="M560.514,1248.384q-.652,3.093-4.855,5.021h3.785l-1.976,4.008H545q5.624-4.086,6.772-5,3.531-2.773,3.746-3.785a2.067,2.067,0,0,0,.019-.262.765.765,0,0,0-.875-.856,1.387,1.387,0,0,0-.993.457,2.227,2.227,0,0,0-.6,1.138h-4.894a7.077,7.077,0,0,1,2.6-4.125,7.266,7.266,0,0,1,4.71-1.713,5.687,5.687,0,0,1,3.892,1.236,3.693,3.693,0,0,1,1.254,2.89A4.7,4.7,0,0,1,560.514,1248.384Z" transform="translate(-544.995 -1243.266)" fill="#fff"/>
        <path id="Path_4871" data-name="Path 4871" d="M591.76,1243.731l-2.958,13.914h-5.176l1.011-4.807h-3.162l-1.021,4.807h-5.137l2.948-13.914H583.4l-.953,4.524h3.172l.954-4.524Z" transform="translate(-560.089 -1243.498)" fill="#fff"/>
      </g>
      <g id="Group_5059" data-name="Group 5059" transform="translate(11.439 51.579)">
        <path id="Path_4872" data-name="Path 4872" d="M535.706,1249l.9,1.834,2.024.294-1.464,1.427.346,2.015-1.81-.952-1.81.952.346-2.015-1.464-1.427,2.024-.294Z" transform="translate(-532.777 -1249)" fill="#fff"/>
        <path id="Path_4873" data-name="Path 4873" d="M615.543,1249l.905,1.834,2.023.294-1.464,1.427.346,2.015-1.81-.952-1.81.952.346-2.015-1.464-1.427,2.023-.294Z" transform="translate(-572.521 -1249)" fill="#fff"/>
      </g>
      <g id="Group_5062" data-name="Group 5062" transform="translate(5.093 28.615)">
        <g id="Group_5060" data-name="Group 5060" transform="translate(12.87 4.759)">
          <path id="Path_4874" data-name="Path 4874" d="M528.055,1213.666l-1.8-1.434a.341.341,0,0,1,.425-.534l1.306,1.04,1.942-2.091a.341.341,0,1,1,.5.464Z" transform="translate(-526.125 -1210.539)"/>
        </g>
        <g id="Group_5061" data-name="Group 5061" transform="translate(0 0)">
          <path id="Path_4875" data-name="Path 4875" d="M528.437,1205.232a3.042,3.042,0,0,0-2.269-.877,4.539,4.539,0,0,0-2.9,1.083,4.482,4.482,0,0,0-1.665,2.613,3.555,3.555,0,0,0-.081.74,2.823,2.823,0,0,0,.863,2.106,3.038,3.038,0,0,0,2.215.843,4.505,4.505,0,0,0,2.9-1.077,4.568,4.568,0,0,0,1.661-2.681,3.274,3.274,0,0,0,.075-.693A2.871,2.871,0,0,0,528.437,1205.232Zm-.2,2.767a3.453,3.453,0,0,1-1.257,2.028,3.407,3.407,0,0,1-2.192.815,2.3,2.3,0,0,1-1.676-.637,2.137,2.137,0,0,1-.653-1.594,2.672,2.672,0,0,1,.062-.56,3.393,3.393,0,0,1,1.259-1.977,3.435,3.435,0,0,1,2.2-.82,2.3,2.3,0,0,1,1.717.664,2.172,2.172,0,0,1,.6,1.558A2.484,2.484,0,0,1,528.237,1208Z" transform="translate(-510.22 -1201.705)" fill="#c73030"/>
          <path id="Path_4876" data-name="Path 4876" d="M558.441,1205.172l-3.941,6.788h-2.976l-.014-2.84-1.291,2.84H547.3l-1.033-6.788h3.309l.129,3.309,1.515-3.309H553.6l-.068,3.309,1.6-3.309Z" transform="translate(-526.527 -1202.243)" fill="#c73030"/>
          <path id="Path_4877" data-name="Path 4877" d="M587.6,1196.585l-1.291,2.731h-2.99l-.183.809h3.105l-1.271,2.643h-2.392l-.754,3.533h-3.588l2.059-9.716Z" transform="translate(-547.597 -1196.585)" fill="#c73030"/>
          <path id="Path_4878" data-name="Path 4878" d="M606.53,1204.518l-1.712,3.132a1.012,1.012,0,0,0-.823-.394q-1.1,0-1.406,1.406l-.557,2.588h-3.309l1.128-5.286,3.492-1.869-.224,1.074a3.512,3.512,0,0,1,2.242-.89A3.221,3.221,0,0,1,606.53,1204.518Z" transform="translate(-561.094 -1201.534)" fill="#c73030"/>
          <path id="Path_4879" data-name="Path 4879" d="M626.406,1207.186l-4.186,1.923a.493.493,0,0,0,.442.306.763.763,0,0,0,.611-.347l1.855,1.264a4.488,4.488,0,0,1-3.3,1.447,2.994,2.994,0,0,1-2.133-.777,2.647,2.647,0,0,1-.829-2.022,3.643,3.643,0,0,1,.081-.748,4.665,4.665,0,0,1,1.62-2.674,4.308,4.308,0,0,1,2.837-1.083,2.756,2.756,0,0,1,2.589,1.345A3.661,3.661,0,0,1,626.406,1207.186Zm-2.494-.081a.857.857,0,0,0-.748-.422,1.282,1.282,0,0,0-.836.323,1.319,1.319,0,0,0-.476.751,1.512,1.512,0,0,0,0,.292Z" transform="translate(-574.366 -1201.784)" fill="#c73030"/>
          <path id="Path_4880" data-name="Path 4880" d="M648.561,1207.186l-4.185,1.923a.492.492,0,0,0,.442.306.763.763,0,0,0,.611-.347l1.855,1.264a4.489,4.489,0,0,1-3.3,1.447,3,3,0,0,1-2.133-.777,2.647,2.647,0,0,1-.829-2.022,3.623,3.623,0,0,1,.082-.748,4.665,4.665,0,0,1,1.62-2.674,4.308,4.308,0,0,1,2.837-1.083,2.757,2.757,0,0,1,2.589,1.345A3.667,3.667,0,0,1,648.561,1207.186Zm-2.494-.081a.856.856,0,0,0-.747-.422,1.282,1.282,0,0,0-.836.323,1.315,1.315,0,0,0-.475.751,1.453,1.453,0,0,0,0,.292Z" transform="translate(-588.965 -1201.784)" fill="#c73030"/>
          <path id="Path_4881" data-name="Path 4881" d="M482.852,1196.585l-.978,4.634-1.794-4.634h-3.52L474.5,1206.3h3.452l.944-4.437,1.821,4.437H484.3l2.059-9.716Z" transform="translate(-474.501 -1196.585)" fill="#c73030"/>
        </g>
      </g>
      <g id="Group_8367" data-name="Group 8367" transform="translate(20.368 8.307)">
        <g id="Group_5064" data-name="Group 5064" transform="translate(0.248 0)">
          <g id="Group_5063" data-name="Group 5063" transform="translate(0)">
            <path id="Path_4882" data-name="Path 4882" d="M566.392,1173.826a2.269,2.269,0,1,0,2.265,2.271A2.268,2.268,0,0,0,566.392,1173.826Zm0,3.4a1.134,1.134,0,1,1,1.133-1.134A1.134,1.134,0,0,1,566.392,1177.23Zm17.085-5.082v2.421a1.093,1.093,0,0,1-1.092,1.094h-1.169a3,3,0,0,0-5.933,0h-5.925a3,3,0,0,0-5.929,0h-1.464a1.093,1.093,0,0,1-1.093-1.094v-2.421Zm-5.227,1.678a2.269,2.269,0,1,0,2.265,2.271A2.27,2.27,0,0,0,578.251,1173.826Zm0,3.4a1.134,1.134,0,1,1,1.133-1.134A1.134,1.134,0,0,1,578.251,1177.23Zm4.8-7.519-4.294-4.25a1.459,1.459,0,0,0-1.024-.423h-2.167v-.813a1.091,1.091,0,0,0-1.093-1.093H561.964a1.094,1.094,0,0,0-1.093,1.093v.171l-4.434.512,7.857,1.023-7.959.791,7.93,1.128-7.93.688,4.536.855v2.149h22.606v-.8A1.464,1.464,0,0,0,583.047,1169.712Zm-1.872.141H577.02a.171.171,0,0,1-.171-.17v-3.211a.171.171,0,0,1,.171-.171h.79a.184.184,0,0,1,.121.047l3.362,3.211A.171.171,0,0,1,581.175,1169.853Z" transform="translate(-556.335 -1163.133)"/>
          </g>
        </g>
        <rect id="Rectangle_14" data-name="Rectangle 14" width="28.875" height="0.621" transform="translate(0 14.609)"/>
      </g>
    </g>
    <path id="img_quality_4" d="M36,72A35.994,35.994,0,0,1,34.993.025C35.329.016,35.663,0,36,0c.32,0,.637.016.956.024A35.994,35.994,0,0,1,36,72ZM36,3.333A32.667,32.667,0,1,0,68.667,36,32.7,32.7,0,0,0,36,3.333Z" transform="translate(1156 464)" fill-rule="evenodd"/>
  </g>
</svg>
