<svg xmlns="http://www.w3.org/2000/svg" width="72" height="72" viewBox="0 0 72 72">
  <path id="img_quality_3" d="M36,72A36,36,0,1,1,72,36,36.069,36.069,0,0,1,36,72ZM36,4A32,32,0,1,0,68,36,32.062,32.062,0,0,0,36,4Zm0,62.665A30.667,30.667,0,1,1,66.667,36,30.7,30.7,0,0,1,36,66.667ZM36,5.853A30.147,30.147,0,1,0,66.148,36,30.18,30.18,0,0,0,36,5.853ZM62.424,28.072a.9.9,0,0,1-.531-.56,1.758,1.758,0,0,1-.059-.771,1.629,1.629,0,0,0-.031-.689.337.337,0,0,0-.235-.216.589.589,0,0,0-.376.015l-.061-.756a1.115,1.115,0,0,1,.807.009.883.883,0,0,1,.537.553,1.913,1.913,0,0,1,.048.74,1.9,1.9,0,0,0,.043.724.361.361,0,0,0,.233.216.549.549,0,0,0,.385-.008l.044.752a1.1,1.1,0,0,1-.805-.009Zm-6.867,4.095-.476-1.351,1.212-.927L55.555,27.8l-1.521.055-.48-1.351,7.121-.092.468,1.324-5.585,4.432Zm3.6-4.487-2.492.081.516,1.456,1.984-1.512-.008-.025Zm-6.572-2.5,2.239-1.691-1.656-2.232-2.239,1.691-.819-1.1L55.5,17.78l.816,1.1L54,20.628l1.657,2.233,2.319-1.751.816,1.1L53.4,26.279l-.816-1.1Zm-5.96-5.98,1.333-2.483-2.425-1.333L44.2,17.864,43,17.207l3.213-5.971,1.195.657L46.029,14.46l2.427,1.335,1.38-2.567,1.2.657L47.82,19.856,46.627,19.2Zm-5.692-2.5-1.884-5.012h-.029l-.8,4.509-1.335-.247,1.192-6.693,1.337.248L41.3,14.509h.031l.8-4.5,1.337.247-1.195,6.692Zm-6.741-8,.868-1.281,1.512-.064.012.028L35.351,8.649,34.193,8.7Zm-2.729,5.021-2.663.723.739,2.731-1.313.356-1.773-6.571,1.313-.356.761,2.825,2.663-.723-.761-2.825,1.309-.356,1.773,6.569-1.309.356-.739-2.729Zm-4.935,2.135.023.019a2.148,2.148,0,0,1,.347,1.8A2.7,2.7,0,0,1,25.643,19.2a2.577,2.577,0,0,1-2.08.392,2.813,2.813,0,0,1-1.713-1.319l-.716-1.143a2.891,2.891,0,0,1-.465-2.115,2.509,2.509,0,0,1,1.2-1.7,2.85,2.85,0,0,1,1.957-.527,2.077,2.077,0,0,1,1.483,1.083l.008.028-1.116.711a1.334,1.334,0,0,0-.784-.655,1.3,1.3,0,0,0-.989.249,1.1,1.1,0,0,0-.541.929,2.176,2.176,0,0,0,.387,1.261l.721,1.151a2.106,2.106,0,0,0,.987.891,1.165,1.165,0,0,0,1.109-.121,1.2,1.2,0,0,0,.6-.759,1.407,1.407,0,0,0-.268-.995l1.112-.708ZM20.6,23.192a3.736,3.736,0,0,1-.692,1.507,2.72,2.72,0,0,1-1.791,1.2,2.656,2.656,0,0,1-2.079-.529l-1.149-.827A2.769,2.769,0,0,1,13.7,22.748a2.66,2.66,0,0,1,.5-2.053,2.776,2.776,0,0,1,1.579-1.217,1.912,1.912,0,0,1,1.645.395l.016.024L16.7,20.947a1.1,1.1,0,0,0-.864-.235,1.258,1.258,0,0,0-.769.568,1.243,1.243,0,0,0-.191,1.107,1.946,1.946,0,0,0,.784,1.037l1.157.832a1.911,1.911,0,0,0,1.241.412,1.276,1.276,0,0,0,1-.577,2.413,2.413,0,0,0,.365-.685,1.205,1.205,0,0,0,.052-.5l-1.065-.768-.755,1.071-.763-.549,1.544-2.188L20.561,22A2.609,2.609,0,0,1,20.6,23.192ZM17.56,28.844l-5.148,1.273,0,.028L16.752,31.5l-.4,1.311L9.907,30.8l.4-1.308,5.144-1.276,0-.028-4.34-1.356.4-1.311,6.448,2.015Zm-1.275,5.627-1.452.464.008,2.217,1.456.461,0,1.431L9.551,36.737l0-1.4,6.735-2.3,0,1.433Zm-2.512.8-2.373.756v.028l2.379.761ZM7.656,37.851l-.005-1.525L8.879,35.4l0,1.179-1.2,1.277ZM16.771,40.6l-2.676.827.813,2.663,2.679-.825.4,1.312-6.444,1.987-.4-1.312,2.769-.855L13.1,41.732l-2.771.853-.4-1.311,6.443-1.987.4,1.311ZM18.229,52.04l.757-1.336.757,1.336,1.491.315-1.025,1.14.167,1.529-1.389-.632-1.391.632.167-1.529-1.024-1.14ZM35.557,9.313l.309,6.8-1.359.057-.308-6.8,1.357-.057ZM36,20.112a15.889,15.889,0,0,1,0,31.776,15.453,15.453,0,0,1-6.947-1.66l1.277-.833A14.353,14.353,0,0,1,34.564,47.8c1.752-.189,5.123.341,7.071-.721s4.528-2.515,4.343-3.661-.9-1-.9-1a1.521,1.521,0,0,1,.261-.379,1.791,1.791,0,0,0,.673-1.747,1.279,1.279,0,0,0-1-1.027c.423-.833.935-.756.476-2.3a1.147,1.147,0,0,0-1.275-.936,2.106,2.106,0,0,0,.752-2.18c-.349-1.4-1.492-1.531-2.849-1.427s-5.391,1.043-5.508.635.2-.609.481-1.523,1.519-3.088,1.183-4.724-1-2.948-1.779-2.981a1.506,1.506,0,0,0-1.411.964,3.45,3.45,0,0,0,.129,1.508c.211.932-.2,1.559-1.045,3.168s-1.48,1.241-2.465,2.568-1.04,1.976-1.079,3.836-.835,2.4-2.521,3.945c-1.253,1.147-4.552,2.583-6.164,3.244A15.875,15.875,0,0,1,36,20.112Zm-7.392,29.9c.145.079.3.144.445.217l-.024.016C28.885,50.172,28.749,50.087,28.608,50.011Zm-6.472-6.532c-.072-.137-.153-.268-.221-.408l.023-.009C22.005,43.2,22.064,43.343,22.136,43.479ZM27.188,49.145ZM28.7,57.991l.716-1.265.719,1.265,1.412.3-.969,1.08.157,1.449-1.319-.6-1.315.6.156-1.449-.971-1.08Zm13.056.444.717-1.267.719,1.267,1.411.3-.969,1.081.156,1.449-1.316-.6-1.316.6.156-1.449-.969-1.081Zm9.445-5.9.756-1.336.757,1.336,1.492.313-1.024,1.14.165,1.531-1.391-.632-1.388.632.167-1.531-1.027-1.14Zm4.988-13.053a2.653,2.653,0,0,1,2.131-.239l1.359.371a2.741,2.741,0,0,1,1.733,1.264,2.674,2.674,0,0,1,.243,2.1,2.79,2.79,0,0,1-1.056,1.7,1.911,1.911,0,0,1-1.675.211l-.024-.017.328-1.247a1.089,1.089,0,0,0,.888-.084,1.259,1.259,0,0,0,.523-.805,1.24,1.24,0,0,0-.2-1.105,1.927,1.927,0,0,0-1.095-.7l-1.369-.373a1.9,1.9,0,0,0-1.305.053,1.283,1.283,0,0,0-.733.893,2.47,2.47,0,0,0-.1.772,1.173,1.173,0,0,0,.125.488l1.261.343.336-1.268.9.245-.687,2.6L55.253,44a2.615,2.615,0,0,1-.448-1.108,3.784,3.784,0,0,1,.124-1.657,2.75,2.75,0,0,1,1.26-1.756Zm6.295-3.221.061,1.371-6.737.284-.061-1.369,4.42-2.947-.007-.028-4.537.192-.061-1.371,6.737-.284.06,1.369-4.416,2.947.007.028,4.535-.192Z" fill-rule="evenodd"/>
</svg>
