<svg xmlns="http://www.w3.org/2000/svg" width="113.161" height="118.914" viewBox="0 0 113.161 118.914">
  <g id="Group_8410" data-name="Group 8410" transform="translate(16024.926 19301.951)">
    <g id="Group_8409" data-name="Group 8409" transform="translate(22.893 24.055)">
      <path id="Path_12397" d="M-106.628,404.535a48.274,48.274,0,0,1,10.47,1.5c21.67,5.56,35.955,19.073,42.894,40.378.893,2.678.162,3.815-2.557,4.586-6.209,1.745-11-.446-14.244-6.777A45.525,45.525,0,0,0-83.78,427.828a43.832,43.832,0,0,0-35.533-7.18A43.832,43.832,0,0,0-148.1,442.681a31.26,31.26,0,0,1-2.841,4.748,11.474,11.474,0,0,1-13.189,3.287c-2.07-.893-2.232-2.394-1.623-4.342q7.852-24.957,31.369-36.361a55.029,55.029,0,0,1,17.531-5.032,61.443,61.443,0,0,1,10.225-.446Z" transform="translate(-15881.755 -19730.492)"/>
      <path id="Path_12401" d="M-109.457,628.956a57.7,57.7,0,0,1-55.961-40.662c-1.258-3.936-.528-5.073,3.571-5.763,6.087-1.015,9.9,1.014,13.108,7.264a44.528,44.528,0,0,0,16.517,18.14,43.834,43.834,0,0,0,34.291,4.789,43.834,43.834,0,0,0,27.068-21.589c.649-1.258,1.3-2.516,2.07-3.734a11.433,11.433,0,0,1,13.676-4.423c2.151.812,2.638,2.191,1.948,4.383-7.185,21.71-21.831,35.3-44.073,40.621a36.716,36.716,0,0,1-5.925.933C-105.237,629.077-107.347,628.956-109.457,628.956Z" transform="translate(-15881.807 -19836.092)"/>
      <path id="Path_12402" d="M-44.367,523.021c-8.563,11.363-29.99,16.963-44.274,3.979-13.067-11.809-13.676-32.79-1.3-44.964a30.973,30.973,0,0,1,23.276-9.1,30.973,30.973,0,0,1,22.418,11.048c-3.206,6.047-8.319,7.832-14.285,4.545-6.087-3.328-12.053-4.261-18.343-.771-7.71,4.3-11.079,15.745-7.142,24.349,3.652,7.995,13.351,11.85,21.873,8.6a25.519,25.519,0,0,0,4.748-2.273c3.125-2.07,6.047-1.664,8.766.568C-47.167,520.221-45.869,521.641-44.367,523.021Z" transform="translate(-15921.696 -19771.143)"/>
    </g>
  </g>
</svg>
