<svg xmlns="http://www.w3.org/2000/svg" width="56" height="56" viewBox="0 0 56 56">
  <g id="Group_8422" data-name="Group 8422" transform="translate(-1156 -488)">
    <g id="Group_8418" data-name="Group 8418" transform="translate(386.798 -669.137)">
      <g id="Group_8423" data-name="Group 8423" transform="translate(0)">
        <path id="Path_12464" data-name="Path 12464" d="M1124.357,1192.86h-1.785a15.76,15.76,0,0,1,1.264-6.122,16.585,16.585,0,0,1,3.457-5.18l-1.341-1.664c-.4.276-.669.1-.9-.246a5.033,5.033,0,0,0-.33-.4c-.586-.716-.587-.719.112-1.287.636-.517,1.281-1.024,1.913-1.546.3-.251.553-.251.8.075a8.834,8.834,0,0,0,.6.73c.266.284.357.559.012.861l1.274,1.581c.849-.475,1.652-.971,2.495-1.388a15.09,15.09,0,0,1,4.774-1.434c.276-.036.379-.126.372-.41-.016-.72-.006-1.442-.006-2.2-.659.051-.715-.327-.7-.812.026-.693.015-1.387,0-2.081-.008-.391.133-.576.551-.571q1.963.022,3.926,0c.436-.005.586.176.575.6-.02.709-.028,1.42,0,2.128.02.475-.085.784-.66.728v2.534a16.617,16.617,0,0,1,7.636,2.86l1.219-1.5c-.345-.349-.219-.652.084-.958a7.33,7.33,0,0,0,.572-.692.451.451,0,0,1,.73-.076q1.139.922,2.281,1.842a.419.419,0,0,1,.057.687c-.205.239-.406.483-.6.733-.237.309-.474.587-.883.227l-1.239,1.54a16.474,16.474,0,0,1-.532,23.854,8,8,0,0,0-.348-.74,1.208,1.208,0,0,1,.25-1.743,15.515,15.515,0,0,0,1.576-2,7.455,7.455,0,0,1-.785-.483c-.1-.077-.115-.252-.169-.383.139-.023.3-.1.411-.058a6.7,6.7,0,0,1,.773.421,14.446,14.446,0,0,0,1.851-6.894,6.524,6.524,0,0,1-.877-.012c-.115-.016-.212-.169-.317-.259.1-.081.192-.218.3-.232a7.82,7.82,0,0,1,.893-.011,14.453,14.453,0,0,0-1.852-6.9,7.048,7.048,0,0,1-.756.413c-.115.047-.274-.015-.413-.028.057-.141.076-.326.178-.412a5.53,5.53,0,0,1,.717-.44,14.688,14.688,0,0,0-5.06-4.994,5.006,5.006,0,0,1-.405.659,1.524,1.524,0,0,1-.426.256,1.349,1.349,0,0,1-.017-.488,4.766,4.766,0,0,1,.378-.695,14.45,14.45,0,0,0-6.86-1.765,5.466,5.466,0,0,1-.012.814c-.021.136-.161.253-.247.378-.092-.12-.241-.23-.264-.361a5,5,0,0,1-.013-.815,14.241,14.241,0,0,0-6.785,1.866,7.236,7.236,0,0,1,.418.778c.043.11-.03.267-.051.4-.131-.05-.309-.064-.385-.159a5.338,5.338,0,0,1-.411-.678c-1.269.384-4.1,3.219-4.936,4.946a5.25,5.25,0,0,1,.667.4c.108.088.144.265.213.4-.151.016-.32.085-.447.037a5.628,5.628,0,0,1-.731-.4A14.593,14.593,0,0,0,1124.357,1192.86Z" transform="translate(-330.276 -13.628)"/>
        <path id="Path_12471" data-name="Path 12471" d="M1289.186,1300.719q.141,2.494.282,4.988c.074,1.336.151,2.673.2,4.01.015.376.144.5.53.516q4.41.224,8.823.535c-.839.053-1.677.111-2.517.158q-3.253.185-6.507.36c-1.125.059-1.465.194-1.366-1.277.208-3.094.346-6.192.513-9.289Z" transform="translate(-480.61 -131.181)" fill="#c73030"/>
      </g>
      <g id="Group_8419" data-name="Group 8419" transform="translate(769.203 1181.137)">
        <g id="Group_8420" data-name="Group 8420">
          <path id="Path_12463" data-name="Path 12463" d="M906.28,1434.847h-6.9c.116-.471.422-1.472.422-1.472s1.837.007,2.638,0a1.276,1.276,0,1,0,0-2.543c-.673-.008-1.347,0-2.075,0,.122-.52.437-1.644.437-1.644h3.138c1.1,0,2.205.014,3.307,0a1.275,1.275,0,0,0,1.252-1.748,1.205,1.205,0,0,0-1.167-.8c-.909-.007,0,0-5.949,0,.495-1.98.977-3.9,1.467-5.859.893,0,1.819.011,2.744,0a1.225,1.225,0,0,0,1.166-.8,1.144,1.144,0,0,0-.3-1.371,1.894,1.894,0,0,0-.946-.366c-.683-.055-1.374-.016-2.093-.016l.428-1.436H927.7c1.46,0,1.894.55,1.552,1.979q-.823,3.435-1.659,6.867-1.067,4.411-2.136,8.823c-.032.132-.076.261-.116.4H913.893a6.737,6.737,0,0,0-.007-1,2.75,2.75,0,0,0-2.694-2.237,4.854,4.854,0,0,0-4.86,3.128A.662.662,0,0,1,906.28,1434.847Z" transform="translate(-890.604 -1416.783)"/>
          <path id="Path_12465" data-name="Path 12465" d="M999.377,1624.777c-.31-.045-.625-.065-.928-.14a2.243,2.243,0,0,1-1.623-3.122,4.256,4.256,0,0,1,5.033-2.339,2.225,2.225,0,0,1,1.395,3.035A4.36,4.36,0,0,1,999.377,1624.777Zm.386-1.389a2.179,2.179,0,0,0,1.918-1.235,1.177,1.177,0,0,0-.814-1.734,2.151,2.151,0,0,0-2.223.78,1.282,1.282,0,0,0-.282,1.464A1.391,1.391,0,0,0,999.763,1623.388Z" transform="translate(-980.58 -1603.777)"/>
          <path id="Path_12466" data-name="Path 12466" d="M1299.2,1624.7c-.132-.012-.334-.016-.532-.049a2.3,2.3,0,0,1-1.766-3.455,4.334,4.334,0,0,1,4.618-2.162,2.272,2.272,0,0,1,1.6,3.327A4.365,4.365,0,0,1,1299.2,1624.7Zm.54-1.363a2.17,2.17,0,0,0,1.9-1.241,1.177,1.177,0,0,0-.822-1.729,2.147,2.147,0,0,0-2.2.757,1.293,1.293,0,0,0-.3,1.494A1.4,1.4,0,0,0,1299.736,1623.337Z" transform="translate(-1256.966 -1603.727)"/>
          <path id="Path_12467" data-name="Path 12467" d="M852.4,1443.781c-1.521,0-3.042,0-4.563,0a.809.809,0,1,1-.045-1.613q4.638-.005,9.276,0a.81.81,0,0,1,.852.818.824.824,0,0,1-.882.792c-1.546.005-3.092,0-4.638,0Z" transform="translate(-842.114 -1440.249)" fill="#c73030"/>
          <path id="Path_12468" data-name="Path 12468" d="M826.642,1609.805c1.357,0,2.713,0,4.07,0a.744.744,0,0,1,.788.613.767.767,0,0,1-.453.9,1.083,1.083,0,0,1-.4.066q-4.051.005-8.1,0a.792.792,0,1,1-.008-1.578c1.369-.006,2.738,0,4.108,0Z" transform="translate(-818.777 -1595.269)" fill="#c73030"/>
          <path id="Path_12469" data-name="Path 12469" d="M890.229,1553.977c1.357,0,2.714,0,4.07,0a.743.743,0,0,1,.788.613.767.767,0,0,1-.452.9,1.089,1.089,0,0,1-.4.066q-4.051.005-8.1,0a.792.792,0,1,1-.009-1.578c1.369-.006,2.738,0,4.108,0Z" transform="translate(-877.59 -1543.643)" fill="#c73030"/>
          <path id="Path_12470" data-name="Path 12470" d="M788.162,1498.051c1.357,0,.9,0,2.257,0a.744.744,0,0,1,.788.613.766.766,0,0,1-.453.9,1.08,1.08,0,0,1-.4.066c-2.7,0-3.589,0-6.289,0a.791.791,0,1,1-.009-1.578c1.369-.007,2.739,0,4.108,0Z" transform="translate(-783.202 -1491.928)" fill="#c73030"/>
          <path id="Path_12472" data-name="Path 12472" d="M1406.263,1606.394c-.551-.136-.6-.192-.571-.692.016-.295.038-.536.061-.854a.282.282,0,0,1,.321-.3l.626.017Z" transform="translate(-1357.818 -1590.412)"/>
          <path id="Path_12473" data-name="Path 12473" d="M1031.539,1649.386c-.384-.006-.633-.226-.626-.551a.974.974,0,0,1,.982-.811.571.571,0,0,1,.625.563A.932.932,0,0,1,1031.539,1649.386Z" transform="translate(-1012.262 -1630.616)"/>
          <path id="Path_12474" data-name="Path 12474" d="M1331.521,1649.378c-.392.005-.647-.194-.659-.516a.955.955,0,0,1,.947-.845.582.582,0,0,1,.655.529A.909.909,0,0,1,1331.521,1649.378Z" transform="translate(-1288.643 -1630.609)"/>
          <path id="Path_12475" data-name="Path 12475" d="M1263.843,1498.772q-1.19-2.968-2.376-5.938a.982.982,0,0,0-1.145-.757h-6.046l-3.017,12.427h3.026a4.906,4.906,0,0,1,4.867-3.241,2.782,2.782,0,0,1,2.762,2.27,7.073,7.073,0,0,1,.007.986,1.656,1.656,0,0,0,.551-.012c.217-.081.508-.206.579-.386a11.057,11.057,0,0,0,.379-1.444c-.092-.046-.146-.076-.2-.1-.518-.22-.562-.285-.533-.851.017-.327.053-.652.071-.978a.38.38,0,0,1,.435-.405h.786A2.535,2.535,0,0,0,1263.843,1498.772Zm-7.2,1.248h-1.014a.212.212,0,0,1,0-.423h1.014a.212.212,0,1,1,0,.423Zm4.7-1.169h-2.564v-.006c-.855,0-1.709,0-2.564,0-.457,0-.512-.076-.407-.512q.441-1.826.882-3.651c.064-.266.135-.53.195-.8a.464.464,0,0,1,.52-.386c.679,0,1.358.013,2.036,0,.548-.013.734.385.891.777.516,1.279,1,2.569,1.506,3.853C1262.054,1498.693,1261.949,1498.851,1261.337,1498.851Z" transform="translate(-1215.051 -1486.443)"/>
        </g>
      </g>
    </g>
    <g id="Group_8421" data-name="Group 8421" transform="translate(1156 534.569)" opacity="0.9">
      <g id="Group_5060" data-name="Group 5060" transform="translate(12.094 4.472)">
        <path id="Path_4874" data-name="Path 4874" d="M527.939,1213.477l-1.692-1.347a.321.321,0,0,1,.4-.5l1.227.978,1.825-1.965a.321.321,0,0,1,.47.436Z" transform="translate(-526.125 -1210.539)" fill="#c73030"/>
      </g>
      <g id="Group_5061" data-name="Group 5061" transform="translate(0 0)">
        <path id="Path_4875" data-name="Path 4875" d="M528.02,1205.179a2.858,2.858,0,0,0-2.132-.824,4.266,4.266,0,0,0-2.727,1.018,4.212,4.212,0,0,0-1.564,2.456,3.337,3.337,0,0,0-.076.7,2.652,2.652,0,0,0,.811,1.979,2.854,2.854,0,0,0,2.081.792,4.233,4.233,0,0,0,2.723-1.012,4.293,4.293,0,0,0,1.561-2.519,3.084,3.084,0,0,0,.07-.651A2.7,2.7,0,0,0,528.02,1205.179Zm-.188,2.6a3.246,3.246,0,0,1-1.181,1.906,3.2,3.2,0,0,1-2.06.766,2.16,2.16,0,0,1-1.575-.6,2.008,2.008,0,0,1-.613-1.5,2.521,2.521,0,0,1,.058-.526,3.189,3.189,0,0,1,1.183-1.857,3.229,3.229,0,0,1,2.063-.77,2.163,2.163,0,0,1,1.613.624,2.041,2.041,0,0,1,.565,1.464A2.341,2.341,0,0,1,527.832,1207.779Z" transform="translate(-510.902 -1201.865)"/>
        <path id="Path_4876" data-name="Path 4876" d="M557.706,1205.172l-3.7,6.378h-2.8l-.013-2.668-1.213,2.668h-2.745l-.97-6.378h3.109l.121,3.109,1.424-3.109h2.235l-.064,3.109,1.506-3.109Z" transform="translate(-527.717 -1202.42)"/>
        <path id="Path_4877" data-name="Path 4877" d="M587.039,1196.585l-1.213,2.566h-2.809l-.172.76h2.918l-1.194,2.484h-2.247l-.709,3.32h-3.371l1.935-9.13Z" transform="translate(-549.446 -1196.585)"/>
        <path id="Path_4878" data-name="Path 4878" d="M606.059,1204.492l-1.609,2.943a.951.951,0,0,0-.773-.37q-1.034,0-1.321,1.322l-.524,2.432h-3.11l1.06-4.967,3.282-1.756-.211,1.009a3.3,3.3,0,0,1,2.107-.836A3.025,3.025,0,0,1,606.059,1204.492Z" transform="translate(-563.364 -1201.689)"/>
        <path id="Path_4879" data-name="Path 4879" d="M625.951,1207.022l-3.933,1.807a.463.463,0,0,0,.415.287.717.717,0,0,0,.575-.326l1.743,1.188a4.218,4.218,0,0,1-3.1,1.36,2.814,2.814,0,0,1-2-.73,2.487,2.487,0,0,1-.779-1.9,3.421,3.421,0,0,1,.077-.7,4.383,4.383,0,0,1,1.523-2.512,4.048,4.048,0,0,1,2.666-1.018,2.59,2.59,0,0,1,2.432,1.264A3.442,3.442,0,0,1,625.951,1207.022Zm-2.343-.076a.805.805,0,0,0-.7-.4,1.2,1.2,0,0,0-.785.3,1.24,1.24,0,0,0-.447.706,1.432,1.432,0,0,0,0,.275Z" transform="translate(-577.051 -1201.946)"/>
        <path id="Path_4880" data-name="Path 4880" d="M648.106,1207.022l-3.933,1.807a.462.462,0,0,0,.415.287.717.717,0,0,0,.575-.326l1.743,1.188a4.219,4.219,0,0,1-3.1,1.36,2.815,2.815,0,0,1-2-.73,2.488,2.488,0,0,1-.779-1.9,3.408,3.408,0,0,1,.077-.7,4.384,4.384,0,0,1,1.523-2.512,4.048,4.048,0,0,1,2.666-1.018,2.591,2.591,0,0,1,2.433,1.264A3.448,3.448,0,0,1,648.106,1207.022Zm-2.343-.076a.8.8,0,0,0-.7-.4,1.2,1.2,0,0,0-.785.3,1.236,1.236,0,0,0-.447.706,1.372,1.372,0,0,0,0,.275Z" transform="translate(-592.106 -1201.946)"/>
        <path id="Path_4881" data-name="Path 4881" d="M482.348,1196.585l-.919,4.354-1.686-4.354h-3.307l-1.935,9.13h3.243l.887-4.169,1.711,4.169h3.365l1.935-9.13Z" transform="translate(-474.501 -1196.585)"/>
      </g>
    </g>
  </g>
</svg>
