<svg xmlns="http://www.w3.org/2000/svg" width="56" height="56" viewBox="0 0 56 56">
  <g id="Group_8426" data-name="Group 8426" transform="translate(-1156 -272)">
    <g id="Group_8424" data-name="Group 8424" transform="translate(427.127 -576.806)">
      <path id="Path_12476" data-name="Path 12476" d="M768.858,870.532a4.426,4.426,0,0,1-.284.892,2.762,2.762,0,0,0,0,2.747,2.394,2.394,0,0,1-.142,2.53,3.75,3.75,0,0,1-1.028.974,2.317,2.317,0,0,0-1.033,1.82,3,3,0,0,1-.6,1.787,2.566,2.566,0,0,1-1.96.993,2.445,2.445,0,0,0-2.2,1.261,2.665,2.665,0,0,1-3.521.922,2.392,2.392,0,0,0-2.455,0,2.669,2.669,0,0,1-3.548-.953,2.49,2.49,0,0,0-2.172-1.234,2.556,2.556,0,0,1-2.4-1.828,7.735,7.735,0,0,1-.136-1.159,2.085,2.085,0,0,0-1.092-1.632,2.707,2.707,0,0,1-1.116-3.5,2.9,2.9,0,0,0-.021-2.748A2.471,2.471,0,0,1,746,868.17a3.038,3.038,0,0,0,1.434-2.534,2.481,2.481,0,0,1,2.347-2.283,2.852,2.852,0,0,0,2.4-1.344,2.5,2.5,0,0,1,3.366-.893,2.792,2.792,0,0,0,2.622.009,2.511,2.511,0,0,1,3.4.9,2.835,2.835,0,0,0,2.361,1.325,2.475,2.475,0,0,1,2.37,2.307,2.963,2.963,0,0,0,1.455,2.52A2.583,2.583,0,0,1,768.858,870.532Zm-12-6.342a8.616,8.616,0,1,0,8.632,8.583A8.637,8.637,0,0,0,756.86,864.189Z"/>
      <g id="Group_8425" data-name="Group 8425" transform="translate(0.306)">
        <path id="Path_12477" data-name="Path 12477" d="M891.137,1122.979a4.889,4.889,0,0,0,2.161-.2,3.463,3.463,0,0,0,1.621-1.077,1.2,1.2,0,0,1,1.064-.521l.956,2.289,1.426,3.415a.636.636,0,0,1,.081.216c0,.141.036.347-.063.407a.8.8,0,0,1-.531-.021c-1.052-.389-2.093-.8-3.138-1.2-.548-.21-.585-.2-.862.208q-.756,1.117-1.51,2.235a.82.82,0,0,1-.165.224.862.862,0,0,1-.411.221c-.1,0-.264-.153-.311-.261-.464-1.073-.911-2.151-1.355-3.229a.348.348,0,0,1,.011-.252C890.445,1124.625,890.786,1123.817,891.137,1122.979Z" transform="translate(-133.098 -236.374)"/>
        <path id="Path_12478" data-name="Path 12478" d="M779.406,1121.178a1.211,1.211,0,0,1,1.066.523,3.534,3.534,0,0,0,1.906,1.112,4.554,4.554,0,0,0,2.674-.1c.832-.3.914-.3,1.483-.081-.214.5-.429,1-.646,1.509l-1.53,3.56a.987.987,0,0,1-.122.267c-.092.11-.228.289-.329.283a.671.671,0,0,1-.429-.242c-.554-.763-1.083-1.537-1.619-2.307-.321-.46-.344-.466-.944-.242q-1.436.537-2.873,1.073a3.221,3.221,0,0,1-.382.124c-.375.088-.522-.009-.471-.309a.965.965,0,0,1,.072-.213q1.025-2.394,2.052-4.788C779.339,1121.289,779.376,1121.233,779.406,1121.178Z" transform="translate(-29.612 -236.371)"/>
      </g>
      <path id="Path_12479" data-name="Path 12479" d="M820.713,954.091a7.135,7.135,0,0,1,.509-.649c1.289-1.3,2.579-2.6,3.885-3.885a1.521,1.521,0,0,1,2.593.661,1.434,1.434,0,0,1-.377,1.449q-2.78,2.8-5.581,5.581a1.667,1.667,0,0,1-2.255-.058q-1.4-1.375-2.774-2.776a1.533,1.533,0,1,1,2.178-2.154C819.473,952.828,820.039,953.412,820.713,954.091Z" transform="translate(-65.124 -80.56)"/>
    </g>
    <path id="img_quality_3" data-name="img quality 3" d="M422.1,280.076a28,28,0,1,1,28-28A28,28,0,0,1,422.1,280.076Zm0-52.888a24.889,24.889,0,1,0,24.889,24.889h0A24.936,24.936,0,0,0,422.1,227.188Z" transform="translate(761.902 47.924)" fill="#080909" fill-rule="evenodd"/>
  </g>
</svg>
